<svg width="178" height="184" viewBox="0 0 178 184" fill="none" xmlns="http://www.w3.org/2000/svg">
<g filter="url(#filter0_d_1_23799)">
<path d="M106.13 77.3222C106.135 77.0643 106.039 76.8225 105.862 76.6398C105.679 76.4517 105.438 76.3496 105.175 76.3496C104.923 76.3496 104.687 76.4463 104.51 76.6183C104.328 76.7956 104.226 77.0374 104.221 77.29C104.216 77.5479 104.312 77.7897 104.489 77.967C104.671 78.1551 104.913 78.2572 105.175 78.2572C105.427 78.2572 105.663 78.1605 105.84 77.9885C106.022 77.8166 106.124 77.5748 106.13 77.3222Z" fill="#EF4136"/>
<path d="M103.142 80.5891C103.324 80.4118 103.431 80.1754 103.442 79.9228C103.448 79.6649 103.356 79.4231 103.179 79.2404C102.997 79.0469 102.751 78.9395 102.488 78.9395C102.241 78.9395 102.011 79.0308 101.834 79.2028C101.646 79.3801 101.544 79.6165 101.533 79.8691C101.528 80.127 101.619 80.3688 101.796 80.5515C101.978 80.745 102.225 80.8524 102.488 80.8524C102.729 80.847 102.965 80.7557 103.142 80.5891Z" fill="#EF4136"/>
<path d="M65.2896 110.025C65.0805 110.025 64.8822 110.09 64.7159 110.219C64.5122 110.375 64.3835 110.595 64.346 110.853C64.3138 111.105 64.3782 111.358 64.5283 111.562C64.7106 111.804 64.9894 111.938 65.2896 111.938C65.4988 111.938 65.6971 111.868 65.8634 111.745C66.0671 111.589 66.1958 111.369 66.2333 111.111C66.2655 110.858 66.2011 110.606 66.0456 110.402C65.8687 110.16 65.5899 110.025 65.2896 110.025Z" fill="#EF4136"/>
<path d="M68.2545 107.758C68.04 107.758 67.8416 107.828 67.6754 107.957C67.4717 108.112 67.343 108.338 67.3108 108.591C67.2786 108.843 67.343 109.096 67.4985 109.295C67.6808 109.531 67.9542 109.671 68.2545 109.671C68.4636 109.671 68.6673 109.601 68.8335 109.472C69.0373 109.316 69.166 109.09 69.1981 108.838C69.2303 108.585 69.166 108.333 69.0105 108.134C68.8282 107.892 68.5494 107.758 68.2545 107.758Z" fill="#EF4136"/>
<path d="M85.7221 93.7812C85.4969 93.7812 85.2825 93.8619 85.1109 94.0016C84.9179 94.1628 84.7946 94.3938 84.7731 94.6518C84.7517 94.9043 84.8267 95.1569 84.9929 95.3503C85.1752 95.5706 85.4433 95.6942 85.7275 95.6942C85.9527 95.6942 86.1672 95.6136 86.3387 95.4739C86.5318 95.3127 86.6551 95.0816 86.6765 94.8237C86.698 94.5712 86.6229 94.3186 86.4567 94.1252C86.2744 93.9048 86.0063 93.7812 85.7221 93.7812Z" fill="#EF4136"/>
<path d="M62.3135 112.277C62.1044 112.277 61.906 112.342 61.7398 112.471C61.536 112.627 61.402 112.847 61.3698 113.099C61.3323 113.352 61.3966 113.605 61.5521 113.809C61.7344 114.051 62.0132 114.19 62.3135 114.19C62.5172 114.19 62.7049 114.126 62.8711 114.013L63.0159 113.927V113.884C63.3215 113.551 63.3537 113.04 63.0748 112.664C62.8979 112.417 62.6191 112.277 62.3135 112.277Z" fill="#EF4136"/>
<path d="M100.409 83.1477C100.596 82.9758 100.704 82.7393 100.714 82.4814C100.725 82.2235 100.634 81.9817 100.462 81.7936C100.28 81.6001 100.028 81.4873 99.7599 81.4873C99.5186 81.4873 99.2881 81.5787 99.1112 81.7399C98.9235 81.9118 98.8163 82.1482 98.8055 82.4062C98.7948 82.6587 98.886 82.9059 99.0575 83.094C99.2345 83.2928 99.4918 83.4056 99.7599 83.4056C100.001 83.4003 100.232 83.3089 100.409 83.1477Z" fill="#EF4136"/>
<path d="M97.008 85.9149C97.2439 85.9149 97.4691 85.8289 97.6461 85.6677C97.8337 85.4958 97.9463 85.2647 97.9624 85.0068C97.9731 84.7489 97.8873 84.5071 97.7158 84.319C97.5335 84.1202 97.2761 84.002 97.008 84.002C96.7721 84.002 96.5469 84.0879 96.37 84.2491C96.1823 84.4211 96.0697 84.6521 96.0536 84.9101C96.0429 85.168 96.1287 85.4098 96.2949 85.5979C96.4772 85.7967 96.7346 85.9149 97.008 85.9149Z" fill="#EF4136"/>
<path d="M79.5676 98.3496C79.3478 98.3496 79.1387 98.4248 78.9671 98.5645C78.7687 98.7258 78.6454 98.9514 78.6186 99.2094C78.5918 99.4619 78.6669 99.7145 78.8277 99.9133C79.01 100.139 79.2781 100.268 79.5676 100.268C79.7875 100.268 79.9966 100.193 80.1681 100.058C80.3665 99.8972 80.4898 99.6715 80.5167 99.4136C80.5435 99.161 80.4684 98.9085 80.3076 98.715C80.1306 98.4786 79.8572 98.3496 79.5676 98.3496Z" fill="#EF4136"/>
<path d="M91.4152 88.9395C91.1846 88.9395 90.9648 89.0201 90.7932 89.1705C90.6002 89.3371 90.4876 89.5682 90.4661 89.8207C90.4447 90.0733 90.5305 90.3204 90.6967 90.5139C90.879 90.7235 91.1417 90.847 91.4205 90.847C91.6511 90.847 91.8709 90.7664 92.0425 90.616C92.2355 90.4494 92.3535 90.2183 92.3695 89.9604C92.3856 89.7079 92.3052 89.4607 92.139 89.2672C91.9567 89.063 91.694 88.9395 91.4152 88.9395Z" fill="#EF4136"/>
<path d="M82.8587 96.1562C82.6388 96.1562 82.4244 96.2315 82.2528 96.3712C82.0544 96.5324 81.9364 96.7635 81.9096 97.016C81.8828 97.2686 81.9579 97.5211 82.1187 97.7146C82.301 97.9349 82.5691 98.0638 82.8587 98.0638C83.0785 98.0638 83.2929 97.9886 83.4645 97.8489C83.872 97.5157 83.931 96.9085 83.5986 96.5001C83.4109 96.2852 83.1428 96.1562 82.8587 96.1562Z" fill="#EF4136"/>
<path d="M88.5794 91.3789C88.3542 91.3789 88.1344 91.4595 87.9628 91.6046C87.7698 91.7712 87.6518 92.0022 87.6304 92.2548C87.6089 92.5073 87.6893 92.7545 87.8555 92.9533C88.0378 93.1683 88.3006 93.2919 88.5847 93.2919C88.8099 93.2919 89.0298 93.2113 89.2013 93.0662C89.3944 92.8996 89.5123 92.6685 89.5338 92.416C89.5552 92.1634 89.4748 91.9163 89.3086 91.7174C89.1209 91.4971 88.8582 91.3789 88.5794 91.3789Z" fill="#EF4136"/>
<path d="M94.2265 86.4844C93.9959 86.4844 93.7708 86.5703 93.5938 86.7208C93.197 87.0701 93.1595 87.6773 93.508 88.0696C93.6903 88.2738 93.9477 88.392 94.2265 88.392C94.4571 88.392 94.6822 88.306 94.8592 88.1555C95.0522 87.989 95.1648 87.7525 95.1809 87.5C95.197 87.2474 95.1112 87.0002 94.945 86.8068C94.7573 86.6026 94.4999 86.4844 94.2265 86.4844Z" fill="#EF4136"/>
<path d="M74.1399 103.174C73.9255 103.174 73.7217 103.244 73.5501 103.378C73.1373 103.706 73.0676 104.308 73.3893 104.721C73.5716 104.952 73.845 105.087 74.1399 105.087C74.3544 105.087 74.5581 105.017 74.7297 104.883C74.9281 104.727 75.0568 104.496 75.089 104.243C75.1211 103.991 75.0514 103.738 74.8906 103.539C74.7083 103.308 74.4348 103.174 74.1399 103.174Z" fill="#EF4136"/>
<path d="M110.433 71.0625C110.17 71.0625 109.929 71.1646 109.747 71.358C109.57 71.5407 109.473 71.7825 109.479 72.0405C109.484 72.2984 109.586 72.5348 109.768 72.7122C109.945 72.8841 110.181 72.9808 110.428 72.9808C110.69 72.9808 110.932 72.8787 111.114 72.6907C111.291 72.508 111.387 72.2662 111.382 72.0082C111.377 71.7557 111.275 71.5139 111.087 71.3365C110.916 71.1592 110.685 71.0625 110.433 71.0625Z" fill="#EF4136"/>
<path d="M77.0625 100.858C76.8856 100.858 76.7194 100.907 76.5693 100.993H76.5585L76.4674 101.063C76.462 101.063 76.462 101.068 76.4567 101.073L76.446 101.084C76.2583 101.24 76.1457 101.46 76.1189 101.702C76.0921 101.955 76.1618 102.207 76.3226 102.406C76.5049 102.637 76.7784 102.766 77.0679 102.766C77.2877 102.766 77.4915 102.696 77.6631 102.556C77.8614 102.395 77.9901 102.17 78.0169 101.917C78.0437 101.664 77.974 101.412 77.8132 101.213C77.6255 100.987 77.3521 100.858 77.0625 100.858Z" fill="#EF4136"/>
<path d="M71.2033 105.475C70.9888 105.475 70.7904 105.544 70.6189 105.673C70.4151 105.829 70.2864 106.055 70.2596 106.308C70.2275 106.56 70.2972 106.813 70.4527 107.011C70.635 107.248 70.9084 107.382 71.2087 107.382C71.4231 107.382 71.6269 107.312 71.7931 107.183C71.9915 107.028 72.1202 106.802 72.1523 106.549C72.1845 106.297 72.1148 106.044 71.9593 105.845C71.7716 105.609 71.4982 105.475 71.2033 105.475Z" fill="#EF4136"/>
<path d="M108.505 74.007C108.323 73.8243 108.087 73.7275 107.829 73.7275C107.572 73.7275 107.336 73.8296 107.154 74.007C106.972 74.1897 106.875 74.4261 106.875 74.684C106.875 74.9366 106.977 75.1784 107.154 75.3611C107.336 75.5384 107.572 75.6405 107.829 75.6405C108.087 75.6405 108.323 75.5384 108.505 75.3611C108.875 74.9849 108.875 74.3777 108.505 74.007Z" fill="#EF4136"/>
<path d="M41.2249 127.699C41.0372 127.699 40.8549 127.753 40.6941 127.86L40.6619 127.877L40.6405 127.898C40.4474 128.048 40.3188 128.258 40.2812 128.5C40.2383 128.752 40.2973 129.005 40.4474 129.215C40.6244 129.467 40.9139 129.612 41.2249 129.612C41.4179 129.612 41.6002 129.558 41.7557 129.451L41.7825 129.435L41.804 129.413C42.2061 129.102 42.2972 128.516 41.997 128.097C41.82 127.85 41.5305 127.699 41.2249 127.699Z" fill="#EF4136"/>
<path d="M129.056 47.607C128.917 47.5318 128.761 47.4941 128.606 47.4941C128.252 47.4941 127.93 47.6876 127.764 47.9992C127.646 48.2249 127.619 48.4829 127.694 48.73C127.769 48.9719 127.936 49.176 128.161 49.2943C128.3 49.3695 128.45 49.4071 128.606 49.4071C128.96 49.4071 129.281 49.2137 129.448 48.8966C129.694 48.4345 129.517 47.8542 129.056 47.607Z" fill="#EF4136"/>
<path d="M112.996 68.3486C112.734 68.3486 112.476 68.4615 112.294 68.6549C112.122 68.843 112.031 69.0848 112.042 69.3427C112.053 69.5953 112.16 69.8317 112.347 70.009C112.524 70.1756 112.755 70.2616 112.996 70.2616C113.259 70.2616 113.516 70.1488 113.699 69.9553C113.87 69.7672 113.961 69.5254 113.951 69.2675C113.94 69.0096 113.833 68.7785 113.645 68.6012C113.468 68.44 113.238 68.3486 112.996 68.3486Z" fill="#EF4136"/>
<path d="M127.254 50.8741C127.104 50.7827 126.932 50.7344 126.755 50.7344C126.418 50.7344 126.117 50.9063 125.94 51.1911C125.806 51.4061 125.769 51.664 125.828 51.9165C125.887 52.1637 126.042 52.3733 126.257 52.5076C126.407 52.599 126.578 52.6473 126.755 52.6473C127.093 52.6473 127.393 52.4754 127.57 52.1906C127.704 51.9757 127.742 51.7177 127.683 51.4652C127.624 51.218 127.474 51.0084 127.254 50.8741Z" fill="#EF4136"/>
<path d="M53.3257 118.945C53.122 118.945 52.929 119.01 52.7628 119.128C52.559 119.278 52.425 119.499 52.3821 119.751C52.3445 120.004 52.4035 120.256 52.5537 120.461C52.7306 120.708 53.0201 120.853 53.3257 120.853C53.5295 120.853 53.7225 120.788 53.8887 120.67C54.3123 120.359 54.4088 119.762 54.0978 119.332C53.9155 119.096 53.626 118.945 53.3257 118.945Z" fill="#EF4136"/>
<path d="M47.2888 123.342C47.0904 123.342 46.8974 123.406 46.7312 123.525C46.5274 123.675 46.388 123.895 46.3451 124.148C46.3022 124.4 46.3666 124.653 46.5113 124.857C46.6883 125.104 46.9778 125.255 47.2834 125.255C47.4818 125.255 47.6748 125.19 47.841 125.072C48.0501 124.922 48.1842 124.701 48.2217 124.449C48.2646 124.196 48.2003 123.944 48.0555 123.734C47.8839 123.487 47.5944 123.342 47.2888 123.342Z" fill="#EF4136"/>
<path d="M130.611 44.2212C130.488 44.1675 130.359 44.1406 130.23 44.1406C129.85 44.1406 129.507 44.3663 129.356 44.7156C129.147 45.1992 129.367 45.7634 129.85 45.973C129.973 46.0267 130.102 46.0536 130.23 46.0536C130.611 46.0536 130.954 45.8279 131.104 45.4786C131.206 45.2422 131.212 44.9843 131.12 44.7478C131.024 44.5114 130.847 44.3233 130.611 44.2212Z" fill="#EF4136"/>
<path d="M132.642 37.0747C132.583 37.064 132.529 37.0586 132.47 37.0586C132.009 37.0586 131.618 37.3864 131.532 37.8431C131.484 38.0957 131.543 38.3482 131.688 38.5578C131.832 38.7674 132.052 38.9071 132.304 38.9554C132.363 38.9662 132.417 38.9716 132.476 38.9716C132.937 38.9716 133.328 38.6438 133.414 38.187C133.505 37.6658 133.157 37.1661 132.642 37.0747Z" fill="#EF4136"/>
<path d="M131.843 40.7075C131.746 40.6753 131.65 40.6592 131.548 40.6592C131.135 40.6592 130.77 40.9279 130.642 41.3201C130.561 41.5619 130.583 41.8199 130.701 42.0509C130.819 42.2766 131.017 42.4486 131.258 42.5238C131.355 42.556 131.451 42.5721 131.553 42.5721C131.966 42.5721 132.331 42.3035 132.459 41.9112C132.54 41.6694 132.518 41.4115 132.4 41.1804C132.282 40.9547 132.089 40.7881 131.843 40.7075Z" fill="#EF4136"/>
<path d="M44.26 125.523C44.0617 125.523 43.8686 125.583 43.7024 125.701C43.4933 125.851 43.3593 126.072 43.3164 126.324C43.2735 126.577 43.3325 126.829 43.4826 127.039C43.6595 127.286 43.9491 127.436 44.26 127.436C44.4584 127.436 44.6514 127.377 44.8177 127.259C45.0268 127.109 45.1608 126.888 45.2037 126.636C45.2466 126.383 45.1876 126.131 45.0375 125.926C44.8552 125.674 44.5657 125.523 44.26 125.523Z" fill="#EF4136"/>
<path d="M38.1902 129.881C37.9918 129.881 37.7988 129.945 37.638 130.058C37.4289 130.209 37.2948 130.429 37.2519 130.682C37.209 130.934 37.268 131.187 37.4181 131.396C37.5951 131.643 37.8846 131.794 38.1956 131.794C38.394 131.794 38.587 131.729 38.7532 131.617C38.9623 131.466 39.0964 131.246 39.1393 130.993C39.1821 130.741 39.1232 130.488 38.973 130.279C38.7854 130.026 38.4958 129.881 38.1902 129.881Z" fill="#EF4136"/>
<path d="M116.134 65.8238C115.957 65.668 115.732 65.582 115.501 65.582C115.281 65.582 115.072 65.6573 114.906 65.7916H114.708V66.0065C114.595 66.1785 114.541 66.3827 114.552 66.5869C114.568 66.8448 114.681 67.0759 114.874 67.2478C115.051 67.4036 115.271 67.4896 115.507 67.4896C115.78 67.4896 116.037 67.3714 116.22 67.1672C116.386 66.9738 116.472 66.732 116.461 66.474C116.439 66.2269 116.327 65.9958 116.134 65.8238Z" fill="#EF4136"/>
<path d="M118.557 62.9855C118.386 62.8404 118.166 62.7598 117.941 62.7598C117.657 62.7598 117.394 62.8834 117.212 63.0983C117.045 63.2917 116.97 63.5389 116.992 63.7968C117.013 64.0494 117.131 64.2805 117.33 64.447C117.501 64.5921 117.721 64.6727 117.946 64.6727C118.23 64.6727 118.493 64.5491 118.675 64.3342C118.842 64.1408 118.922 63.8936 118.895 63.6356C118.868 63.3777 118.751 63.1467 118.557 62.9855Z" fill="#EF4136"/>
<path d="M59.3272 114.512C59.1234 114.512 58.9251 114.576 58.7588 114.7C58.5551 114.85 58.4211 115.076 58.3835 115.329C58.346 115.581 58.4103 115.834 58.5605 116.038C58.7374 116.28 59.0269 116.425 59.3272 116.425C59.5309 116.425 59.7293 116.36 59.8955 116.237C60.0993 116.086 60.2333 115.86 60.2708 115.608C60.3084 115.355 60.244 115.103 60.0939 114.899C59.9116 114.651 59.6328 114.512 59.3272 114.512Z" fill="#EF4136"/>
<path d="M56.3301 116.737C56.1264 116.737 55.928 116.802 55.7671 116.925C55.5634 117.076 55.4293 117.302 55.3918 117.554C55.3543 117.807 55.4133 118.059 55.5687 118.263C55.7457 118.505 56.0352 118.65 56.3355 118.65C56.5392 118.65 56.7376 118.586 56.8985 118.462C57.1022 118.312 57.2362 118.086 57.2738 117.833C57.3113 117.581 57.2523 117.328 57.0968 117.124C56.9199 116.882 56.6304 116.737 56.3301 116.737Z" fill="#EF4136"/>
<path d="M123.142 57.0963C122.975 56.9727 122.782 56.9082 122.573 56.9082C122.273 56.9082 121.983 57.0533 121.807 57.2951C121.656 57.4993 121.592 57.7518 121.63 58.0044C121.667 58.257 121.801 58.4773 122.005 58.6331C122.171 58.7567 122.37 58.8212 122.573 58.8212C122.874 58.8212 123.163 58.6761 123.34 58.4343C123.651 58.0151 123.565 57.4133 123.142 57.0963Z" fill="#EF4136"/>
<path d="M125.269 54.0338C125.108 53.9263 124.926 53.8672 124.733 53.8672C124.417 53.8672 124.122 54.023 123.945 54.2863C123.8 54.4959 123.746 54.7484 123.795 55.001C123.843 55.2536 123.982 55.4685 124.197 55.6136C124.358 55.721 124.54 55.7802 124.733 55.7802C125.049 55.7802 125.344 55.6243 125.521 55.361C125.666 55.1515 125.719 54.8989 125.671 54.6463C125.623 54.3938 125.478 54.1789 125.269 54.0338Z" fill="#EF4136"/>
<path d="M120.894 60.0787C120.723 59.9444 120.519 59.8691 120.299 59.8691C120.004 59.8691 119.736 59.9981 119.554 60.2292C119.227 60.6429 119.296 61.2448 119.709 61.5725C119.881 61.7069 120.085 61.7821 120.304 61.7821C120.599 61.7821 120.867 61.6531 121.05 61.4221C121.211 61.2233 121.28 60.9707 121.253 60.7182C121.221 60.4656 121.098 60.2399 120.894 60.0787Z" fill="#EF4136"/>
<path d="M50.3087 121.148C50.1049 121.148 49.9119 121.213 49.751 121.331C49.5473 121.482 49.4079 121.702 49.3704 121.954C49.3328 122.207 49.3918 122.46 49.5419 122.664C49.7189 122.911 50.0084 123.056 50.314 123.056C50.5178 123.056 50.7108 122.992 50.8716 122.873C51.2952 122.562 51.3917 121.965 51.0808 121.535C50.9038 121.294 50.6143 121.148 50.3087 121.148Z" fill="#EF4136"/>
<path d="M35.1564 132.067C34.9956 132.067 34.8347 132.11 34.6953 132.186H34.6631L34.5827 132.261C34.3843 132.411 34.2557 132.626 34.2181 132.873C34.1752 133.126 34.2396 133.379 34.3897 133.588C34.5666 133.835 34.8562 133.98 35.1618 133.98C35.3655 133.98 35.5586 133.916 35.7194 133.798L35.7409 133.782C35.9339 133.631 36.0626 133.416 36.1054 133.174C36.1483 132.922 36.084 132.669 35.9339 132.46C35.7516 132.212 35.462 132.067 35.1564 132.067Z" fill="#EF4136"/>
<path d="M4.49236 154.854C4.33151 154.854 4.17066 154.897 4.03125 154.973H3.99908L3.91866 155.048C3.72027 155.198 3.59159 155.413 3.55406 155.661C3.51117 155.913 3.57551 156.166 3.72564 156.375C3.90257 156.622 4.1921 156.767 4.49772 156.767C4.70147 156.767 4.89449 156.703 5.05534 156.585L5.07679 156.569C5.26981 156.418 5.39849 156.203 5.44139 155.961C5.48428 155.709 5.41994 155.456 5.26981 155.247C5.08751 155 4.79798 154.854 4.49236 154.854Z" fill="#EF4136"/>
<path d="M31.6494 135.063C31.4403 135.063 31.2419 135.128 31.0757 135.257C30.872 135.413 30.7379 135.633 30.7058 135.886C30.6682 136.138 30.7326 136.391 30.8881 136.595C31.0703 136.837 31.3492 136.976 31.6494 136.976C31.8532 136.976 32.0408 136.912 32.207 136.799L32.3518 136.713V136.67C32.6574 136.337 32.6896 135.827 32.4108 135.45C32.2338 135.203 31.955 135.063 31.6494 135.063Z" fill="#EF4136"/>
<path d="M10.5608 150.486C10.3732 150.486 10.1909 150.54 10.03 150.648L9.99784 150.664L9.9764 150.685C9.78338 150.836 9.65469 151.045 9.61716 151.287C9.57427 151.54 9.63325 151.792 9.78338 152.002C9.96031 152.254 10.2498 152.399 10.5608 152.399C10.7538 152.399 10.9361 152.346 11.0916 152.238L11.1184 152.222L11.1399 152.2C11.542 151.889 11.6332 151.303 11.3329 150.884C11.156 150.637 10.8664 150.486 10.5608 150.486Z" fill="#EF4136"/>
<path d="M22.6636 141.732C22.4599 141.732 22.2669 141.797 22.1007 141.915C21.8969 142.066 21.7629 142.286 21.72 142.538C21.6824 142.791 21.7414 143.044 21.8915 143.248C22.0685 143.495 22.358 143.64 22.6636 143.64C22.8674 143.64 23.0604 143.576 23.2266 143.457C23.6502 143.146 23.7467 142.549 23.4357 142.119C23.2534 141.883 22.9639 141.732 22.6636 141.732Z" fill="#EF4136"/>
<path d="M16.6267 146.128C16.4283 146.128 16.2353 146.192 16.0691 146.311C15.8653 146.461 15.7259 146.681 15.683 146.934C15.6401 147.187 15.7045 147.439 15.8492 147.643C16.0262 147.89 16.3157 148.041 16.6213 148.041C16.8197 148.041 17.0127 147.976 17.1789 147.858C17.388 147.708 17.5221 147.487 17.5596 147.235C17.6025 146.982 17.5382 146.73 17.3934 146.52C17.2218 146.273 16.9323 146.128 16.6267 146.128Z" fill="#EF4136"/>
<path d="M13.596 148.31C13.3976 148.31 13.2046 148.369 13.0384 148.487C12.8293 148.637 12.6952 148.858 12.6523 149.11C12.6094 149.363 12.6684 149.615 12.8185 149.825C12.9955 150.072 13.285 150.223 13.596 150.223C13.7944 150.223 13.9874 150.163 14.1536 150.045C14.3627 149.895 14.4968 149.674 14.5396 149.422C14.5825 149.169 14.5236 148.917 14.3734 148.713C14.1911 148.46 13.9016 148.31 13.596 148.31Z" fill="#EF4136"/>
<path d="M7.52617 152.668C7.32778 152.668 7.13476 152.732 6.97391 152.845C6.7648 152.996 6.63076 153.216 6.58787 153.469C6.54497 153.721 6.60395 153.974 6.75408 154.183C6.93102 154.43 7.22055 154.581 7.53153 154.581C7.72991 154.581 7.92293 154.516 8.08915 154.404C8.29825 154.253 8.4323 154.033 8.47519 153.78C8.51808 153.528 8.45911 153.275 8.30898 153.066C8.12132 152.813 7.83178 152.668 7.52617 152.668Z" fill="#EF4136"/>
<path d="M28.6631 137.299C28.4594 137.299 28.261 137.363 28.0948 137.487C27.891 137.637 27.757 137.863 27.7195 138.116C27.6819 138.368 27.7463 138.621 27.8964 138.825C28.0733 139.067 28.3629 139.212 28.6631 139.212C28.8669 139.212 29.0652 139.147 29.2315 139.024C29.4352 138.873 29.5692 138.648 29.6068 138.395C29.6443 138.142 29.58 137.89 29.4298 137.686C29.2475 137.439 28.9687 137.299 28.6631 137.299Z" fill="#EF4136"/>
<path d="M25.666 139.523C25.4623 139.523 25.2639 139.588 25.1031 139.712C24.8993 139.862 24.7653 140.088 24.7277 140.34C24.6902 140.593 24.7492 140.845 24.9047 141.05C25.0816 141.291 25.3712 141.436 25.6714 141.436C25.8752 141.436 26.0735 141.372 26.2344 141.248C26.4381 141.098 26.5722 140.872 26.6097 140.62C26.6472 140.367 26.5883 140.115 26.4328 139.91C26.2558 139.669 25.9663 139.523 25.666 139.523Z" fill="#EF4136"/>
<path d="M19.6446 143.936C19.4409 143.936 19.2478 144 19.087 144.118C18.8832 144.269 18.7438 144.489 18.7063 144.742C18.6688 144.994 18.7277 145.247 18.8779 145.451C19.0548 145.698 19.3443 145.843 19.65 145.843C19.8537 145.843 20.0467 145.779 20.2076 145.66C20.6312 145.349 20.7277 144.752 20.4167 144.322C20.2398 144.081 19.9502 143.936 19.6446 143.936Z" fill="#EF4136"/>
<path d="M142.109 147.415C142.072 147.259 141.993 147.112 141.888 146.994L141.881 146.962L141.789 146.901C141.597 146.743 141.358 146.667 141.109 146.687C140.853 146.703 140.622 146.824 140.453 147.018C140.253 147.247 140.178 147.562 140.248 147.86C140.295 148.058 140.402 148.231 140.554 148.36L140.575 148.377C140.766 148.531 141.004 148.607 141.249 148.593C141.505 148.577 141.736 148.456 141.906 148.262C142.104 148.028 142.179 147.713 142.109 147.415Z" fill="#EF4136"/>
<path d="M112.892 122.801C112.855 122.644 112.777 122.498 112.671 122.379L112.664 122.348L112.572 122.287C112.38 122.128 112.142 122.052 111.892 122.073C111.637 122.089 111.406 122.21 111.236 122.404C111.036 122.633 110.961 122.948 111.032 123.245C111.078 123.444 111.185 123.617 111.337 123.746L111.358 123.763C111.549 123.917 111.787 123.992 112.033 123.979C112.288 123.962 112.519 123.842 112.689 123.648C112.888 123.414 112.962 123.098 112.892 122.801Z" fill="#EF4136"/>
<path d="M138.387 144.69C138.339 144.487 138.231 144.309 138.067 144.176C137.869 144.014 137.623 143.934 137.37 143.961C137.116 143.982 136.885 144.103 136.722 144.301C136.528 144.534 136.456 144.837 136.525 145.129C136.572 145.328 136.678 145.496 136.826 145.631L136.943 145.753L136.984 145.743C137.379 145.964 137.883 145.878 138.185 145.52C138.385 145.291 138.457 144.988 138.387 144.69Z" fill="#EF4136"/>
<path d="M118.536 127.705C118.493 127.523 118.399 127.357 118.257 127.226L118.234 127.198L118.208 127.182C118.018 127.029 117.784 126.952 117.54 126.97C117.285 126.987 117.052 127.102 116.883 127.296C116.678 127.526 116.603 127.842 116.674 128.144C116.719 128.332 116.813 128.497 116.953 128.624L116.975 128.646L117.001 128.662C117.396 128.982 117.987 128.936 118.326 128.548C118.526 128.319 118.606 128.003 118.536 127.705Z" fill="#EF4136"/>
<path d="M129.834 137.475C129.788 137.277 129.681 137.104 129.527 136.969C129.334 136.805 129.089 136.725 128.833 136.742C128.579 136.763 128.347 136.878 128.182 137.071C127.982 137.3 127.908 137.615 127.978 137.913C128.024 138.111 128.132 138.284 128.285 138.419C128.685 138.76 129.288 138.717 129.635 138.315C129.823 138.084 129.903 137.767 129.834 137.475Z" fill="#EF4136"/>
<path d="M124.171 132.607C124.125 132.414 124.018 132.241 123.865 132.106C123.672 131.942 123.425 131.857 123.17 131.874C122.914 131.89 122.683 132.01 122.517 132.198C122.317 132.427 122.237 132.743 122.308 133.041C122.353 133.234 122.46 133.407 122.613 133.542C122.808 133.711 123.053 133.791 123.308 133.769C123.563 133.753 123.794 133.632 123.965 133.443C124.166 133.22 124.241 132.904 124.171 132.607Z" fill="#EF4136"/>
<path d="M121.351 130.159C121.305 129.966 121.203 129.792 121.05 129.657C120.856 129.488 120.61 129.408 120.355 129.425C120.099 129.441 119.867 129.556 119.697 129.75C119.497 129.979 119.417 130.296 119.489 130.598C119.534 130.791 119.636 130.966 119.789 131.1C119.984 131.269 120.229 131.349 120.485 131.333C120.74 131.317 120.973 131.201 121.137 131.008C121.341 130.773 121.421 130.457 121.351 130.159Z" fill="#EF4136"/>
<path d="M115.717 125.253C115.671 125.06 115.564 124.887 115.417 124.756C115.223 124.587 114.978 124.507 114.722 124.523C114.466 124.539 114.234 124.655 114.064 124.849C113.864 125.078 113.785 125.394 113.856 125.697C113.901 125.89 114.008 126.063 114.156 126.199C114.351 126.368 114.596 126.448 114.852 126.432C115.107 126.415 115.34 126.3 115.509 126.106C115.712 125.865 115.787 125.55 115.717 125.253Z" fill="#EF4136"/>
<path d="M135.526 142.297C135.479 142.099 135.371 141.92 135.212 141.787C135.019 141.623 134.768 141.544 134.514 141.566C134.26 141.587 134.029 141.708 133.864 141.901C133.67 142.129 133.595 142.444 133.664 142.736C133.711 142.934 133.819 143.113 133.977 143.246C134.17 143.41 134.421 143.488 134.675 143.467C134.93 143.445 135.161 143.325 135.325 143.132C135.524 142.898 135.596 142.594 135.526 142.297Z" fill="#EF4136"/>
<path d="M132.673 139.89C132.626 139.691 132.518 139.513 132.361 139.385C132.167 139.221 131.917 139.143 131.663 139.164C131.408 139.185 131.176 139.301 131.013 139.499C130.818 139.727 130.743 140.042 130.812 140.334C130.859 140.532 130.967 140.711 131.125 140.839C131.318 141.003 131.568 141.081 131.823 141.06C132.077 141.038 132.309 140.923 132.472 140.725C132.667 140.497 132.742 140.182 132.673 139.89Z" fill="#EF4136"/>
<path d="M126.997 135.042C126.95 134.844 126.843 134.671 126.691 134.541C126.498 134.378 126.252 134.292 125.997 134.314C125.743 134.335 125.511 134.451 125.346 134.644C125.146 134.873 125.072 135.188 125.142 135.485C125.189 135.683 125.296 135.857 125.448 135.986C125.848 136.327 126.451 136.284 126.798 135.882C126.993 135.655 127.067 135.34 126.997 135.042Z" fill="#EF4136"/>
<path d="M174.615 175.586C174.578 175.43 174.499 175.283 174.394 175.164L174.387 175.133L174.295 175.072C174.103 174.914 173.864 174.838 173.615 174.858C173.359 174.874 173.128 174.995 172.959 175.189C172.759 175.418 172.684 175.733 172.754 176.03C172.801 176.229 172.908 176.402 173.06 176.531L173.081 176.548C173.271 176.702 173.51 176.778 173.755 176.764C174.011 176.748 174.242 176.627 174.412 176.433C174.61 176.199 174.685 175.884 174.615 175.586Z" fill="#EF4136"/>
<path d="M145.396 150.972C145.359 150.815 145.28 150.669 145.175 150.55L145.168 150.519L145.076 150.458C144.884 150.299 144.645 150.223 144.396 150.244C144.141 150.26 143.91 150.38 143.74 150.575C143.54 150.804 143.465 151.119 143.535 151.416C143.582 151.614 143.689 151.788 143.841 151.917L143.862 151.934C144.053 152.087 144.291 152.163 144.537 152.15C144.792 152.133 145.023 152.013 145.193 151.819C145.392 151.584 145.466 151.269 145.396 150.972Z" fill="#EF4136"/>
<path d="M170.893 172.861C170.845 172.658 170.737 172.479 170.573 172.347C170.374 172.185 170.129 172.105 169.876 172.131C169.622 172.153 169.391 172.274 169.228 172.472C169.034 172.705 168.962 173.008 169.031 173.3C169.078 173.499 169.184 173.666 169.332 173.802L169.448 173.924L169.49 173.914C169.885 174.135 170.389 174.049 170.691 173.691C170.891 173.462 170.963 173.159 170.893 172.861Z" fill="#EF4136"/>
<path d="M151.042 155.876C150.999 155.693 150.905 155.528 150.763 155.396L150.74 155.369L150.714 155.353C150.524 155.2 150.29 155.122 150.046 155.141C149.79 155.158 149.558 155.273 149.389 155.467C149.183 155.697 149.109 156.012 149.18 156.315C149.224 156.503 149.319 156.668 149.459 156.795L149.481 156.817L149.507 156.833C149.902 157.153 150.493 157.107 150.832 156.719C151.032 156.49 151.112 156.174 151.042 155.876Z" fill="#EF4136"/>
<path d="M162.34 165.646C162.293 165.448 162.186 165.275 162.033 165.14C161.84 164.976 161.595 164.896 161.339 164.912C161.085 164.934 160.852 165.049 160.688 165.242C160.488 165.471 160.413 165.786 160.484 166.084C160.53 166.282 160.637 166.455 160.791 166.59C161.191 166.931 161.794 166.888 162.141 166.486C162.329 166.255 162.409 165.938 162.34 165.646Z" fill="#EF4136"/>
<path d="M156.677 160.778C156.631 160.585 156.524 160.412 156.371 160.277C156.178 160.113 155.931 160.028 155.676 160.044C155.42 160.061 155.189 160.181 155.023 160.369C154.823 160.598 154.743 160.914 154.814 161.212C154.859 161.405 154.966 161.578 155.119 161.713C155.314 161.882 155.559 161.961 155.813 161.94C156.069 161.924 156.3 161.803 156.471 161.614C156.672 161.39 156.747 161.075 156.677 160.778Z" fill="#EF4136"/>
<path d="M153.856 158.33C153.811 158.137 153.709 157.963 153.556 157.828C153.361 157.659 153.116 157.579 152.861 157.595C152.605 157.612 152.373 157.727 152.203 157.921C152.003 158.15 151.923 158.467 151.995 158.769C152.04 158.962 152.142 159.137 152.295 159.271C152.49 159.44 152.735 159.52 152.99 159.504C153.246 159.488 153.478 159.372 153.643 159.179C153.847 158.944 153.927 158.628 153.856 158.33Z" fill="#EF4136"/>
<path d="M148.222 153.424C148.177 153.231 148.07 153.057 147.923 152.927C147.729 152.758 147.483 152.678 147.228 152.694C146.972 152.71 146.74 152.826 146.57 153.02C146.37 153.249 146.29 153.565 146.362 153.868C146.407 154.061 146.514 154.234 146.662 154.37C146.857 154.539 147.102 154.619 147.358 154.603C147.613 154.586 147.846 154.471 148.015 154.277C148.218 154.036 148.293 153.721 148.222 153.424Z" fill="#EF4136"/>
<path d="M168.032 170.468C167.985 170.269 167.876 170.091 167.718 169.958C167.525 169.794 167.274 169.715 167.02 169.737C166.766 169.758 166.534 169.879 166.37 170.072C166.175 170.299 166.101 170.615 166.17 170.907C166.216 171.105 166.325 171.283 166.483 171.417C166.676 171.581 166.927 171.659 167.181 171.638C167.436 171.616 167.667 171.496 167.831 171.303C168.03 171.069 168.102 170.765 168.032 170.468Z" fill="#EF4136"/>
<path d="M165.179 168.061C165.132 167.862 165.024 167.684 164.867 167.556C164.673 167.392 164.423 167.313 164.168 167.335C163.914 167.356 163.682 167.472 163.519 167.67C163.324 167.898 163.249 168.213 163.318 168.505C163.365 168.703 163.473 168.882 163.63 169.01C163.824 169.173 164.074 169.252 164.328 169.231C164.583 169.209 164.815 169.094 164.978 168.896C165.173 168.668 165.248 168.353 165.179 168.061Z" fill="#EF4136"/>
<path d="M159.503 163.213C159.456 163.015 159.349 162.842 159.197 162.712C159.004 162.548 158.758 162.463 158.503 162.485C158.249 162.506 158.016 162.622 157.852 162.815C157.652 163.044 157.577 163.359 157.648 163.656C157.694 163.854 157.801 164.027 157.953 164.157C158.354 164.498 158.957 164.455 159.304 164.053C159.498 163.826 159.573 163.51 159.503 163.213Z" fill="#EF4136"/>
<path d="M80.2484 12.1466C80.0769 12.0069 79.8624 11.9316 79.6426 11.9316C79.353 11.9316 79.085 12.0606 78.9027 12.2809C78.5702 12.6893 78.6292 13.2911 79.0367 13.6243C79.2083 13.764 79.4227 13.8392 79.6372 13.8392C79.9267 13.8392 80.1948 13.7103 80.3771 13.49C80.538 13.2911 80.613 13.044 80.5862 12.7914C80.5648 12.5335 80.4468 12.3078 80.2484 12.1466Z" fill="#EF4136"/>
<path d="M119.677 8.75126C119.844 8.88022 120.047 8.95008 120.256 8.95008C120.557 8.95008 120.835 8.81574 121.012 8.57393C121.334 8.1548 121.254 7.55297 120.835 7.23593C120.669 7.10696 120.466 7.03711 120.256 7.03711C119.956 7.03711 119.677 7.17682 119.5 7.41325C119.345 7.61745 119.281 7.87 119.313 8.11718C119.345 8.36974 119.479 8.59543 119.677 8.75126Z" fill="#EF4136"/>
<path d="M106.322 2.94763C106.37 2.953 106.419 2.95838 106.472 2.95838C106.944 2.95838 107.341 2.61984 107.416 2.15235C107.453 1.89979 107.394 1.64724 107.244 1.44305C107.094 1.23348 106.874 1.09914 106.622 1.06153C106.574 1.05615 106.52 1.05078 106.472 1.05078C106 1.05078 105.604 1.38931 105.529 1.85681C105.491 2.10936 105.55 2.36192 105.7 2.56611C105.85 2.7703 106.07 2.91001 106.322 2.94763Z" fill="#EF4136"/>
<path d="M131.329 26.3918C131.19 26.6067 131.142 26.8593 131.195 27.1118C131.286 27.5525 131.678 27.8695 132.128 27.8695C132.192 27.8695 132.257 27.8641 132.327 27.848C132.573 27.7943 132.788 27.6492 132.927 27.4343C133.066 27.2193 133.115 26.9668 133.061 26.7142C132.97 26.2736 132.579 25.9512 132.128 25.9512C132.064 25.9512 131.999 25.9565 131.93 25.9727C131.678 26.0318 131.469 26.1769 131.329 26.3918Z" fill="#EF4136"/>
<path d="M114.622 3.78592C114.531 3.54948 114.349 3.36141 114.118 3.25931C113.995 3.20558 113.866 3.17871 113.738 3.17871C113.357 3.17871 113.014 3.4044 112.864 3.75368C112.762 3.98474 112.757 4.24804 112.848 4.48447C112.939 4.72091 113.121 4.90898 113.357 5.01108C113.48 5.06481 113.609 5.09168 113.738 5.09168C114.118 5.09168 114.462 4.86599 114.612 4.51671C114.708 4.28565 114.714 4.02772 114.622 3.78592Z" fill="#EF4136"/>
<path d="M117.934 6.35465C118.203 5.90328 118.052 5.31219 117.597 5.04352C117.452 4.95754 117.28 4.90918 117.114 4.90918C116.776 4.90918 116.46 5.09188 116.294 5.38205C116.026 5.83342 116.181 6.42451 116.632 6.69318C116.776 6.77916 116.948 6.82752 117.114 6.82752C117.447 6.82215 117.763 6.64482 117.934 6.35465Z" fill="#EF4136"/>
<path d="M99.0146 2.7865C99.2666 2.75963 99.4918 2.63067 99.6526 2.43185C99.8135 2.23303 99.8832 1.98047 99.851 1.72792C99.7974 1.2443 99.3899 0.878906 98.902 0.878906C98.8645 0.878906 98.8269 0.878906 98.7894 0.88428C98.5374 0.911147 98.3122 1.04011 98.1514 1.23893C97.9905 1.43775 97.9208 1.69031 97.953 1.94286C98.0066 2.42648 98.4141 2.79187 98.902 2.79187C98.9395 2.79187 98.9771 2.79187 99.0146 2.7865Z" fill="#EF4136"/>
<path d="M130.278 22.8186C130.165 23.0497 130.144 23.3076 130.224 23.5494C130.353 23.9417 130.717 24.1996 131.13 24.1996C131.232 24.1996 131.334 24.1835 131.43 24.1512C131.672 24.0706 131.865 23.8987 131.983 23.673C132.095 23.4419 132.117 23.184 132.036 22.9422C131.908 22.5499 131.543 22.292 131.13 22.292C131.028 22.292 130.926 22.3081 130.825 22.3404C130.589 22.421 130.396 22.5875 130.278 22.8186Z" fill="#EF4136"/>
<path d="M109.897 3.75426C109.983 3.78113 110.074 3.79187 110.166 3.79187C110.584 3.79187 110.959 3.50708 111.082 3.10407C111.233 2.59896 110.943 2.06698 110.434 1.91652C110.342 1.88965 110.257 1.87891 110.166 1.87891C109.747 1.87891 109.372 2.1637 109.249 2.56671C109.179 2.8139 109.206 3.07182 109.329 3.29214C109.452 3.5232 109.656 3.6844 109.897 3.75426Z" fill="#EF4136"/>
<path d="M128.857 20.1266C129.013 20.4597 129.35 20.6747 129.72 20.6747C129.86 20.6747 129.999 20.6424 130.128 20.5833C130.605 20.3576 130.809 19.7881 130.583 19.3098C130.428 18.9767 130.09 18.7617 129.72 18.7617C129.581 18.7617 129.441 18.794 129.313 18.8531C129.082 18.9605 128.911 19.154 128.825 19.3958C128.734 19.6376 128.744 19.8955 128.857 20.1266Z" fill="#EF4136"/>
<path d="M132.6 29.7183C132.348 29.7398 132.117 29.8633 131.956 30.0622C131.795 30.2556 131.72 30.4974 131.737 30.7446V30.7607C131.785 31.2551 132.192 31.6259 132.686 31.6259C132.712 31.6259 132.745 31.6259 132.777 31.6205C133.029 31.599 133.259 31.4754 133.42 31.2766C133.581 31.0778 133.661 30.8306 133.635 30.578L133.624 30.4544L133.613 30.4437C133.511 30.0192 133.136 29.7129 132.691 29.7129C132.664 29.7129 132.632 29.7183 132.6 29.7183Z" fill="#EF4136"/>
<path d="M126.429 12.6906C126.246 12.4649 125.978 12.3359 125.689 12.3359C125.469 12.3359 125.26 12.4112 125.088 12.5509C124.89 12.7121 124.767 12.9378 124.74 13.1957C124.713 13.4483 124.788 13.7008 124.943 13.8996C125.126 14.1253 125.394 14.2543 125.683 14.2543C125.903 14.2543 126.112 14.179 126.284 14.0393C126.697 13.7008 126.761 13.099 126.429 12.6906Z" fill="#EF4136"/>
<path d="M127.897 17.3431C128.079 17.3431 128.251 17.2948 128.406 17.1981C128.851 16.9186 128.985 16.3275 128.706 15.8815C128.529 15.6021 128.229 15.4355 127.897 15.4355C127.72 15.4355 127.543 15.4839 127.393 15.5806C127.178 15.715 127.028 15.9299 126.969 16.1771C126.91 16.4296 126.953 16.6822 127.092 16.8971C127.264 17.1712 127.564 17.3431 127.897 17.3431Z" fill="#EF4136"/>
<path d="M123.13 11.4379C123.388 11.4379 123.634 11.3358 123.811 11.1477C123.988 10.965 124.085 10.7232 124.079 10.4706C124.074 10.2127 123.972 9.97627 123.79 9.79895C123.613 9.627 123.372 9.53027 123.125 9.53027C122.862 9.53027 122.621 9.63237 122.444 9.82044C122.267 10.0031 122.171 10.2449 122.176 10.4975C122.181 10.7554 122.283 10.9919 122.466 11.1692C122.648 11.3411 122.884 11.4379 123.13 11.4379Z" fill="#EF4136"/>
<path d="M102.67 2.62H102.691C103.206 2.62 103.635 2.20087 103.646 1.68501C103.651 1.43245 103.56 1.18527 103.383 1.00257C103.206 0.819875 102.97 0.712405 102.718 0.707031H102.697C102.182 0.707031 101.753 1.12616 101.742 1.64202C101.737 1.89458 101.828 2.14176 102.005 2.32446C102.177 2.50716 102.418 2.61463 102.67 2.62Z" fill="#EF4136"/>
<path d="M88.1933 6.39783C88.3649 6.39783 88.5311 6.35484 88.6758 6.26886C89.1316 6.00019 89.2817 5.41448 89.019 4.9631C88.8474 4.67293 88.5311 4.49023 88.1933 4.49023C88.0217 4.49023 87.8555 4.53322 87.7107 4.6192C87.4909 4.74816 87.3354 4.95773 87.2711 5.20491C87.2067 5.45209 87.2443 5.71002 87.3729 5.93033C87.5391 6.21513 87.8555 6.39783 88.1933 6.39783Z" fill="#EF4136"/>
<path d="M91.5826 2.79199C91.4539 2.79199 91.3306 2.81886 91.218 2.86722C90.9821 2.96394 90.7998 3.14664 90.7032 3.38308C90.6067 3.61951 90.6067 3.87744 90.7032 4.11387C90.8534 4.4739 91.1965 4.70496 91.5826 4.70496C91.7112 4.70496 91.8292 4.67809 91.9472 4.62973C92.4297 4.42554 92.6656 3.86669 92.4619 3.3777C92.3171 3.02305 91.9686 2.79199 91.5826 2.79199Z" fill="#EF4136"/>
<path d="M96.1033 2.2928C95.996 1.87367 95.6154 1.57812 95.1811 1.57812C95.1006 1.57812 95.0202 1.58887 94.9398 1.61037C94.6931 1.67485 94.4894 1.83068 94.3554 2.05099C94.2267 2.27131 94.1891 2.52924 94.2535 2.77642C94.3607 3.19555 94.7414 3.49109 95.1757 3.49109C95.2561 3.49109 95.3365 3.48035 95.417 3.45885C95.6636 3.39437 95.8727 3.23854 96.0014 3.01822C96.1301 2.79791 96.1676 2.53998 96.1033 2.2928Z" fill="#EF4136"/>
<path d="M82.1934 11.0287C82.4454 11.0287 82.6813 10.932 82.8636 10.7546C83.0459 10.5773 83.1478 10.3355 83.1478 10.083C83.1478 9.82502 83.0512 9.58859 82.8743 9.40589C82.692 9.22319 82.4507 9.12109 82.1934 9.12109C81.9414 9.12109 81.7055 9.21782 81.5232 9.39514C81.1478 9.76591 81.1425 10.3731 81.5124 10.7493C81.6947 10.9266 81.936 11.0287 82.1934 11.0287Z" fill="#EF4136"/>
<path d="M85.0511 8.52478C85.2602 8.52478 85.4639 8.45493 85.6355 8.32596C85.8392 8.17013 85.9679 7.94444 86.0001 7.69189C86.0323 7.43933 85.9626 7.18678 85.8071 6.98796C85.6248 6.75153 85.3513 6.61719 85.0511 6.61719C84.8366 6.61719 84.6329 6.68704 84.4666 6.81601C84.0484 7.13842 83.9734 7.74025 84.2951 8.15938C84.4774 8.39044 84.7508 8.52478 85.0511 8.52478Z" fill="#EF4136"/>
<path d="M26.5022 17.4085C26.6524 17.5052 26.8293 17.5536 27.0062 17.5536C27.3387 17.5536 27.6389 17.387 27.8159 17.1022C27.9499 16.8873 27.9928 16.6294 27.9338 16.3822C27.8748 16.135 27.7247 15.92 27.5102 15.7857C27.3601 15.689 27.1832 15.6406 27.0062 15.6406C26.6738 15.6406 26.3736 15.8072 26.1966 16.092C25.9178 16.5434 26.0572 17.1345 26.5022 17.4085Z" fill="#EF4136"/>
<path d="M24.7812 20.7982C24.9099 20.8573 25.0493 20.8895 25.1887 20.8895C25.5533 20.8895 25.8964 20.6746 26.0519 20.3414C26.1592 20.1104 26.1753 19.8524 26.0895 19.6106C26.0037 19.3688 25.8267 19.1754 25.6016 19.0679C25.4729 19.0088 25.3335 18.9766 25.1941 18.9766C24.8295 18.9766 24.4863 19.1915 24.3308 19.5247C24.2236 19.7557 24.2075 20.0136 24.2933 20.2555C24.3791 20.4973 24.5507 20.6907 24.7812 20.7982Z" fill="#EF4136"/>
<path d="M28.6036 14.2434C28.7752 14.3832 28.9789 14.453 29.1988 14.453C29.4883 14.453 29.7617 14.324 29.944 14.093C30.1049 13.8942 30.1746 13.6416 30.1478 13.3891C30.121 13.1365 29.9923 12.9054 29.7939 12.7496C29.6223 12.6099 29.4186 12.54 29.1988 12.54C28.9092 12.54 28.6358 12.669 28.4535 12.9001C28.2926 13.0989 28.2229 13.3514 28.2497 13.604C28.2819 13.8565 28.4052 14.0822 28.6036 14.2434Z" fill="#EF4136"/>
<path d="M35.1725 8.91239C35.3709 8.75656 35.4996 8.53087 35.5317 8.27294C35.5639 8.02039 35.4942 7.76783 35.3387 7.56901C35.1564 7.33258 34.883 7.19824 34.5881 7.19824C34.3736 7.19824 34.1699 7.2681 34.0036 7.40244C33.8053 7.55827 33.6766 7.78395 33.6444 8.03651C33.6122 8.28906 33.6819 8.54162 33.8374 8.74044C34.0197 8.9715 34.2932 9.10584 34.5881 9.10584C34.8025 9.11121 35.0009 9.04135 35.1725 8.91239Z" fill="#EF4136"/>
<path d="M59.3641 3.44713C59.4445 3.46863 59.525 3.47937 59.6054 3.47937C60.0397 3.47937 60.4204 3.18383 60.5276 2.7647C60.5919 2.51752 60.5544 2.25959 60.4257 2.03927C60.297 1.81896 60.0879 1.66313 59.8413 1.59865C59.7609 1.57715 59.6804 1.56641 59.6054 1.56641C59.1711 1.56641 58.7904 1.86195 58.6832 2.28108C58.6188 2.52826 58.6564 2.78619 58.785 3.00651C58.9137 3.22682 59.1228 3.38265 59.3641 3.44713Z" fill="#EF4136"/>
<path d="M44.6196 3.86609C44.7107 3.86609 44.8072 3.84997 44.8984 3.8231C45.4024 3.66727 45.6865 3.1353 45.5364 2.63019C45.4131 2.22717 45.0485 1.95312 44.6249 1.95312C44.5284 1.95312 44.4373 1.96925 44.3461 1.99611C43.8421 2.14657 43.5579 2.68392 43.7081 3.18903C43.826 3.59204 44.196 3.86609 44.6196 3.86609Z" fill="#EF4136"/>
<path d="M48.3074 3.00086C48.361 3.00086 48.4147 2.99548 48.4629 2.99011C48.7149 2.94712 48.9347 2.81279 49.0849 2.60322C49.235 2.39903 49.294 2.14647 49.2511 1.88854C49.176 1.42642 48.7792 1.08789 48.3128 1.08789C48.2592 1.08789 48.2055 1.09326 48.1573 1.09864C47.9053 1.14163 47.6855 1.27596 47.5353 1.48553C47.3852 1.6951 47.3262 1.94765 47.3691 2.20021C47.4442 2.66233 47.8409 3.00086 48.3074 3.00086Z" fill="#EF4136"/>
<path d="M32.4112 9.99769C32.2289 9.81499 31.9876 9.71289 31.7356 9.71289C31.4836 9.71289 31.2424 9.80961 31.0654 9.98694C30.8831 10.1643 30.7812 10.4061 30.7812 10.664C30.7812 10.9219 30.8778 11.1584 31.0547 11.3411C31.237 11.5238 31.4783 11.6259 31.7356 11.6259C31.9876 11.6259 32.2289 11.5291 32.4058 11.3518C32.7812 10.9757 32.7865 10.3685 32.4112 9.99769Z" fill="#EF4136"/>
<path d="M22.0416 31.8256C22.0738 31.8309 22.1113 31.8309 22.1435 31.8309C22.6314 31.8309 23.0389 31.4655 23.0925 30.9765C23.1193 30.724 23.0443 30.4714 22.8834 30.2726C22.7226 30.0738 22.4974 29.9502 22.24 29.9233C22.2079 29.918 22.1703 29.918 22.1382 29.918C21.6502 29.918 21.2427 30.2834 21.1945 30.7724C21.1409 31.299 21.5216 31.7665 22.0416 31.8256Z" fill="#EF4136"/>
<path d="M23.4574 24.3666C23.5593 24.3988 23.6612 24.4203 23.763 24.4203C24.1705 24.4203 24.5351 24.157 24.6638 23.7701C24.7442 23.5283 24.7281 23.2704 24.6156 23.0393C24.503 22.8082 24.3099 22.6417 24.0687 22.5557C23.9668 22.5234 23.8649 22.502 23.763 22.502C23.3555 22.502 22.9909 22.7599 22.8569 23.1521C22.7765 23.394 22.7926 23.6519 22.9052 23.8829C23.0231 24.1086 23.2161 24.2806 23.4574 24.3666Z" fill="#EF4136"/>
<path d="M41.0688 5.19959C41.2028 5.19959 41.3369 5.17272 41.4548 5.11898C41.6854 5.01689 41.8677 4.82344 41.9588 4.58701C42.05 4.35057 42.0446 4.08727 41.9374 3.85621C41.7819 3.51231 41.4441 3.29199 41.0688 3.29199C40.9347 3.29199 40.8007 3.31886 40.6774 3.37797C40.4468 3.48006 40.2645 3.67351 40.1734 3.90995C40.0822 4.14638 40.0876 4.40968 40.1948 4.64074C40.3503 4.9739 40.6881 5.19959 41.0688 5.19959Z" fill="#EF4136"/>
<path d="M62.8371 4.61362C62.9551 4.66198 63.0784 4.68885 63.2017 4.68885C63.5877 4.68885 63.9363 4.45779 64.081 4.09776C64.2848 3.60877 64.0489 3.04993 63.5663 2.84574C63.4483 2.79738 63.325 2.77051 63.2017 2.77051C62.8157 2.77051 62.4671 3.00157 62.3224 3.36159C62.2259 3.59803 62.2259 3.85596 62.3224 4.09239C62.4189 4.32882 62.6012 4.5169 62.8371 4.61362Z" fill="#EF4136"/>
<path d="M22.5445 28.0575C22.6088 28.0736 22.6785 28.079 22.7482 28.079C23.1933 28.079 23.5847 27.7619 23.6812 27.3267C23.7938 26.8108 23.4667 26.3004 22.952 26.1875C22.8877 26.1714 22.818 26.166 22.7482 26.166C22.3032 26.166 21.9118 26.4831 21.8153 26.9183C21.7617 27.1655 21.8046 27.4234 21.944 27.6384C22.0834 27.8533 22.2979 27.9984 22.5445 28.0575Z" fill="#EF4136"/>
<path d="M37.7077 6.95643C37.8793 6.95643 38.0508 6.90807 38.201 6.81672C38.4208 6.68238 38.5709 6.47819 38.6353 6.22563C38.6943 5.97845 38.6567 5.72052 38.528 5.50021C38.3565 5.21004 38.0508 5.03809 37.7131 5.03809C37.5415 5.03809 37.3699 5.08645 37.2198 5.1778C36.7694 5.45185 36.6246 6.03756 36.8981 6.48893C37.0643 6.78447 37.3699 6.95643 37.7077 6.95643Z" fill="#EF4136"/>
<path d="M69.1272 8.29959L69.154 8.32108C69.3202 8.45004 69.524 8.5199 69.7385 8.5199C70.0334 8.5199 70.3122 8.38556 70.4945 8.14913C70.6499 7.95031 70.7197 7.69775 70.6875 7.4452C70.6553 7.19264 70.5266 6.96696 70.3282 6.81112C70.1567 6.68216 69.9583 6.6123 69.7438 6.6123C69.4489 6.6123 69.1701 6.74664 68.9878 6.98308C68.8323 7.18727 68.7626 7.43445 68.7948 7.68701C68.8216 7.92881 68.9396 8.14375 69.1272 8.29959Z" fill="#EF4136"/>
<path d="M55.874 2.78601C56.362 2.78601 56.7641 2.42062 56.8231 1.937C56.8499 1.68445 56.7802 1.43189 56.6193 1.23307C56.4585 1.03425 56.2333 0.905288 55.9813 0.87842C55.9491 0.873047 55.9116 0.873047 55.8687 0.873047C55.3808 0.873047 54.9786 1.23845 54.9197 1.72206C54.8929 1.97462 54.9626 2.22717 55.1234 2.42599C55.2843 2.62481 55.5095 2.7484 55.7561 2.77527C55.799 2.78601 55.8365 2.78601 55.874 2.78601Z" fill="#EF4136"/>
<path d="M72.5854 11.0287C72.8428 11.0287 73.0841 10.9266 73.2664 10.7439C73.4433 10.5612 73.5452 10.3194 73.5398 10.0668C73.5398 9.8089 73.438 9.57247 73.2557 9.39514C73.0734 9.21782 72.8374 9.12109 72.5854 9.12109C72.3281 9.12109 72.0868 9.22319 71.9045 9.40589C71.7276 9.58859 71.6257 9.8304 71.6311 10.083C71.6311 10.3355 71.7329 10.5773 71.9152 10.7546C72.0975 10.9266 72.3334 11.0287 72.5854 11.0287Z" fill="#EF4136"/>
<path d="M66.1148 6.25275C66.2596 6.33873 66.4258 6.38172 66.5974 6.38172C66.9351 6.38172 67.2515 6.19902 67.4177 5.90885C67.5464 5.68854 67.5839 5.43061 67.5196 5.18343C67.4552 4.93625 67.2997 4.72668 67.0799 4.59771C66.9351 4.51174 66.7689 4.46875 66.5974 4.46875C66.2596 4.46875 65.9432 4.65145 65.7717 4.94162C65.5089 5.39837 65.6591 5.98408 66.1148 6.25275Z" fill="#EF4136"/>
<path d="M75.8779 12.2819C75.6956 12.0562 75.4275 11.9326 75.1379 11.9326C74.9181 11.9326 74.7036 12.0078 74.5321 12.1476C74.3337 12.3088 74.2104 12.5398 74.1889 12.7924C74.1621 13.0449 74.2372 13.2975 74.398 13.4909C74.5803 13.7166 74.8484 13.8402 75.1379 13.8402C75.3578 13.8402 75.5722 13.765 75.7385 13.6253C76.1459 13.2975 76.2103 12.6903 75.8779 12.2819Z" fill="#EF4136"/>
<path d="M52.0816 2.63074H52.103H52.1084C52.6338 2.61462 53.0467 2.17399 53.0359 1.64739C53.0199 1.12616 52.6017 0.717773 52.0816 0.717773H52.0548C51.7974 0.723147 51.5615 0.830617 51.3899 1.01869C51.213 1.20676 51.1218 1.44857 51.1272 1.70112C51.1433 2.22235 51.5615 2.63074 52.0816 2.63074Z" fill="#EF4136"/>
<path d="M30.5284 57.3115C30.3246 57.3115 30.1262 57.376 29.96 57.4996C29.7563 57.6501 29.6222 57.8757 29.5847 58.1283C29.5472 58.3808 29.6115 58.6334 29.7616 58.8376C29.9386 59.0794 30.2281 59.2245 30.5284 59.2245C30.7321 59.2245 30.9305 59.16 31.0967 59.0364C31.3004 58.886 31.4345 58.6603 31.472 58.4077C31.5095 58.1552 31.4452 57.9026 31.2951 57.6984C31.1128 57.4566 30.8286 57.3115 30.5284 57.3115Z" fill="#EF4136"/>
<path d="M25.8803 49.2081C25.9715 48.9717 25.9661 48.7084 25.8642 48.4773C25.7141 48.128 25.3709 47.9023 24.9903 47.9023C24.8616 47.9023 24.7329 47.9292 24.6096 47.9829C24.3737 48.085 24.1967 48.2731 24.1056 48.5095C24.0144 48.746 24.0198 49.0093 24.1217 49.2403C24.2718 49.5896 24.6149 49.8153 24.9956 49.8153C25.1297 49.8153 25.253 49.7884 25.3763 49.7347C25.6069 49.6326 25.7838 49.4445 25.8803 49.2081Z" fill="#EF4136"/>
<path d="M32.7807 60.1758C32.5555 60.1758 32.3411 60.2564 32.1695 60.3961C31.9765 60.5573 31.8532 60.7884 31.8317 61.0463C31.8103 61.2988 31.8853 61.546 32.0515 61.7448C32.2338 61.9652 32.5019 62.0888 32.7861 62.0888C33.0113 62.0888 33.2258 62.0081 33.3973 61.8684C33.5904 61.7072 33.7137 61.4762 33.7351 61.2182C33.7566 60.9657 33.6815 60.7131 33.5153 60.5197C33.333 60.3047 33.0649 60.1758 32.7807 60.1758Z" fill="#EF4136"/>
<path d="M27.4295 51.6745C27.2633 51.3683 26.9416 51.1748 26.5931 51.1748C26.4376 51.1748 26.2768 51.2124 26.1374 51.293C25.6762 51.5456 25.5047 52.1205 25.7513 52.5827L25.7728 52.6257L25.7835 52.6364C25.9551 52.9158 26.2607 53.0878 26.5931 53.0878C26.7486 53.0878 26.9094 53.0502 27.0488 52.9696C27.274 52.846 27.4349 52.6471 27.5046 52.4C27.5797 52.1582 27.5528 51.9002 27.4295 51.6745Z" fill="#EF4136"/>
<path d="M49.5401 76.1185C49.5133 75.866 49.39 75.6349 49.1916 75.4737C49.02 75.334 48.8055 75.2588 48.5911 75.2588C48.3015 75.2588 48.0335 75.3878 47.8512 75.6081C47.6903 75.8069 47.6152 76.0541 47.642 76.312C47.6689 76.5645 47.7922 76.7956 47.9906 76.9568C48.1621 77.0965 48.3712 77.1718 48.5911 77.1718C48.8806 77.1718 49.1487 77.0428 49.331 76.8225C49.4918 76.6237 49.5669 76.3765 49.5401 76.1185Z" fill="#EF4136"/>
<path d="M22.244 39.2836C22.496 39.2567 22.7266 39.1331 22.882 38.9343C23.0429 38.7355 23.1126 38.4829 23.0858 38.2304C23.0322 37.7467 22.6247 37.376 22.1421 37.376C22.1046 37.376 22.0724 37.376 22.0349 37.3813C21.7829 37.4082 21.5523 37.5318 21.3968 37.7306C21.236 37.9294 21.1663 38.1766 21.1931 38.4346C21.2467 38.9182 21.6542 39.2889 22.1421 39.2889C22.1689 39.2889 22.2065 39.2889 22.244 39.2836Z" fill="#EF4136"/>
<path d="M23.531 42.4489C23.6704 42.234 23.7133 41.976 23.6597 41.7289C23.5632 41.2936 23.1718 40.9766 22.7268 40.9766C22.6571 40.9766 22.582 40.9819 22.523 40.9981C22.2764 41.0518 22.0619 41.2022 21.9225 41.4172C21.7831 41.6321 21.7402 41.8901 21.7938 42.1372C21.8903 42.5725 22.2817 42.8895 22.7268 42.8895C22.7965 42.8895 22.8662 42.8842 22.9305 42.868C23.1771 42.8143 23.3916 42.6638 23.531 42.4489Z" fill="#EF4136"/>
<path d="M24.539 45.8825C24.6516 45.6568 24.673 45.3988 24.5926 45.1517C24.4639 44.7594 24.0993 44.4961 23.6865 44.4961C23.5846 44.4961 23.4827 44.5122 23.3862 44.5445C23.145 44.6251 22.9466 44.797 22.834 45.0227C22.716 45.2484 22.6999 45.5117 22.7804 45.7535C22.909 46.1458 23.2736 46.4091 23.6865 46.4091C23.7884 46.4091 23.8902 46.3929 23.9814 46.3607C24.228 46.2801 24.4264 46.1135 24.539 45.8825Z" fill="#EF4136"/>
<path d="M28.4544 54.3135C28.2721 54.3135 28.0898 54.3672 27.9397 54.4639C27.7252 54.6036 27.5804 54.8132 27.5215 55.0658C27.4679 55.3183 27.5161 55.5709 27.6501 55.7858C27.8271 56.0599 28.1273 56.2264 28.4544 56.2264C28.6367 56.2264 28.8136 56.1727 28.9691 56.076C29.1836 55.9363 29.3284 55.7213 29.382 55.4742C29.4356 55.227 29.3873 54.969 29.2533 54.7541C29.0817 54.4801 28.7815 54.3135 28.4544 54.3135Z" fill="#EF4136"/>
<path d="M35.1877 62.9219C34.9464 62.9219 34.7212 63.0132 34.5389 63.1744C34.3512 63.3464 34.244 63.5828 34.2333 63.8407C34.2225 64.0933 34.3137 64.3405 34.4853 64.5285C34.6676 64.7274 34.9196 64.8402 35.1877 64.8402C35.4289 64.8402 35.6595 64.7489 35.8311 64.5877C36.0187 64.4157 36.126 64.1793 36.1367 63.9267C36.1474 63.6688 36.0563 63.427 35.8847 63.2389C35.7077 63.0347 35.4504 62.9219 35.1877 62.9219Z" fill="#EF4136"/>
<path d="M43.7456 72.1374C43.9118 71.944 43.9976 71.7022 43.9815 71.4443C43.9654 71.1917 43.8528 70.9553 43.6598 70.7887C43.4829 70.6329 43.263 70.5469 43.0271 70.5469C42.7537 70.5469 42.4909 70.6651 42.314 70.8693C42.1478 71.0627 42.062 71.3045 42.0781 71.5625C42.0942 71.815 42.2068 72.0515 42.3998 72.218C42.5767 72.3739 42.7966 72.4598 43.0325 72.4598C43.3006 72.4598 43.5633 72.3416 43.7456 72.1374Z" fill="#EF4136"/>
<path d="M41.0271 69.7029C41.1987 69.5148 41.2899 69.273 41.2845 69.0151C41.2738 68.7571 41.1665 68.5261 40.9842 68.3488C40.8073 68.1822 40.5767 68.0908 40.3355 68.0908C40.0727 68.0908 39.8154 68.2037 39.6384 68.3917C39.4669 68.5798 39.3757 68.8216 39.3811 69.0795C39.3918 69.3321 39.499 69.5685 39.6813 69.7459C39.8583 69.9124 40.0888 70.0038 40.3301 70.0038C40.5928 70.0038 40.8448 69.8963 41.0271 69.7029Z" fill="#EF4136"/>
<path d="M38.3839 67.1882C38.5662 67.0055 38.6627 66.7691 38.6627 66.5112C38.6627 66.2532 38.5608 66.0168 38.3839 65.8341C38.2069 65.6514 37.9657 65.5547 37.7083 65.5547C37.4563 65.5547 37.215 65.6514 37.0327 65.8341C36.8504 66.0168 36.7539 66.2532 36.7539 66.5112C36.7539 66.7691 36.8558 67.0055 37.0327 67.1882C37.215 67.3709 37.4509 67.4677 37.7083 67.4677C37.9657 67.4677 38.2016 67.3709 38.3839 67.1882Z" fill="#EF4136"/>
<path d="M52.3822 78.4027C52.3554 78.1502 52.2267 77.9245 52.0283 77.7633C51.8567 77.6289 51.653 77.5537 51.4331 77.5537C51.1382 77.5537 50.8702 77.6827 50.6879 77.9137C50.527 78.1126 50.4573 78.3597 50.4841 78.6177C50.5109 78.8702 50.6396 79.0959 50.838 79.2571C51.0096 79.3915 51.2133 79.4667 51.4331 79.4667C51.728 79.4667 51.9961 79.3323 52.1784 79.1067C52.3339 78.9025 52.409 78.6553 52.3822 78.4027Z" fill="#EF4136"/>
<path d="M46.5168 74.5017C46.8546 74.104 46.8063 73.5076 46.4149 73.1637L46.3828 73.1314L46.3667 73.1207C46.2005 72.9917 45.9967 72.9219 45.7876 72.9219C45.5035 72.9219 45.2407 73.0455 45.0584 73.2604C44.7206 73.6634 44.7689 74.2653 45.171 74.6092C45.3426 74.7542 45.5624 74.8348 45.7876 74.8348C46.0664 74.8456 46.3345 74.722 46.5168 74.5017Z" fill="#EF4136"/>
<path d="M109.983 120.268C109.811 120.133 109.608 120.063 109.399 120.063C109.104 120.063 108.83 120.198 108.648 120.429C108.492 120.628 108.423 120.88 108.455 121.133C108.487 121.385 108.616 121.611 108.814 121.772C108.986 121.907 109.184 121.976 109.399 121.976C109.694 121.976 109.967 121.842 110.149 121.611C110.305 121.407 110.374 121.16 110.342 120.907C110.315 120.649 110.187 120.424 109.983 120.268Z" fill="#EF4136"/>
<path d="M88.5362 104.615L88.4558 104.534H88.4129C88.2735 104.459 88.118 104.416 87.9572 104.416C87.6515 104.416 87.3566 104.566 87.1797 104.819C87.0296 105.029 86.976 105.281 87.0135 105.534C87.0564 105.786 87.1904 106.007 87.3995 106.157C87.5604 106.275 87.7534 106.334 87.9518 106.334C88.2628 106.334 88.5523 106.184 88.7292 105.931C88.8794 105.722 88.933 105.469 88.8955 105.217C88.8579 104.975 88.7292 104.76 88.5362 104.615Z" fill="#EF4136"/>
<path d="M97.7591 111.224C97.5929 111.106 97.4052 111.047 97.2014 111.047C96.8958 111.047 96.6063 111.197 96.424 111.445C96.2739 111.654 96.2149 111.907 96.2578 112.159C96.3007 112.412 96.4347 112.632 96.6438 112.783C96.8047 112.901 96.9977 112.965 97.2014 112.965C97.5071 112.965 97.7966 112.815 97.9789 112.568C98.129 112.358 98.188 112.105 98.1451 111.853C98.1022 111.595 97.9682 111.375 97.7591 111.224Z" fill="#EF4136"/>
<path d="M106.954 117.952C106.788 117.828 106.589 117.764 106.386 117.764C106.08 117.764 105.801 117.903 105.624 118.145C105.308 118.564 105.394 119.166 105.817 119.483C105.984 119.607 106.182 119.671 106.386 119.671C106.691 119.671 106.97 119.532 107.152 119.29C107.303 119.086 107.367 118.833 107.335 118.58C107.292 118.328 107.158 118.108 106.954 117.952Z" fill="#EF4136"/>
<path d="M94.6818 109.009C94.5209 108.891 94.3279 108.832 94.1295 108.832C93.8239 108.832 93.5344 108.982 93.3521 109.23C93.0464 109.66 93.1429 110.256 93.5719 110.562C93.7327 110.681 93.9258 110.74 94.1295 110.74C94.4351 110.74 94.7247 110.589 94.907 110.342C95.2072 109.912 95.1053 109.316 94.6818 109.009Z" fill="#EF4136"/>
<path d="M100.83 113.448C100.664 113.33 100.471 113.266 100.273 113.266C99.9672 113.266 99.6777 113.416 99.5008 113.663C99.1898 114.088 99.2863 114.69 99.7152 114.996C99.8814 115.114 100.074 115.179 100.273 115.179C100.578 115.179 100.868 115.034 101.045 114.786C101.195 114.582 101.254 114.324 101.217 114.077C101.174 113.819 101.04 113.599 100.83 113.448Z" fill="#EF4136"/>
<path d="M82.74 100.3C82.5792 100.182 82.3862 100.123 82.1878 100.123C81.8822 100.123 81.5873 100.274 81.4103 100.521C81.2602 100.73 81.2012 100.983 81.2441 101.235C81.2816 101.466 81.3996 101.671 81.5765 101.816L81.6462 101.918H81.732C81.8714 101.993 82.0269 102.036 82.1878 102.036C82.4934 102.036 82.7829 101.886 82.9652 101.633C83.2655 101.208 83.169 100.607 82.74 100.3Z" fill="#EF4136"/>
<path d="M91.5936 106.801C91.4327 106.683 91.2397 106.624 91.0413 106.624C90.7357 106.624 90.4461 106.774 90.2638 107.027C90.1137 107.237 90.0547 107.489 90.0976 107.742C90.1405 107.994 90.2746 108.215 90.4837 108.36C90.6445 108.478 90.8375 108.537 91.0413 108.537C91.3469 108.537 91.6418 108.387 91.8187 108.139C91.9689 107.93 92.0225 107.677 91.985 107.425C91.9421 107.172 91.8027 106.952 91.5936 106.801Z" fill="#EF4136"/>
<path d="M103.904 115.69C103.738 115.566 103.545 115.502 103.341 115.502C103.041 115.502 102.752 115.647 102.569 115.894C102.419 116.098 102.355 116.351 102.398 116.604C102.435 116.856 102.569 117.076 102.778 117.227C102.945 117.345 103.138 117.41 103.341 117.41C103.642 117.41 103.931 117.264 104.114 117.017C104.264 116.813 104.323 116.561 104.285 116.308C104.242 116.061 104.108 115.84 103.904 115.69Z" fill="#EF4136"/>
<path d="M85.4275 102.39C85.2667 102.272 85.0737 102.213 84.8753 102.213C84.5697 102.213 84.2748 102.363 84.0978 102.616C83.9477 102.825 83.8887 103.078 83.9316 103.331C83.9745 103.583 84.1086 103.803 84.3177 103.954C84.4785 104.072 84.6715 104.131 84.8699 104.131C85.1755 104.131 85.4704 103.981 85.6474 103.728C85.953 103.298 85.8565 102.697 85.4275 102.39Z" fill="#EF4136"/>
<path d="M67.3477 89.7347C67.3102 89.4822 67.1708 89.2619 66.967 89.1114C66.8008 88.9932 66.6078 88.9287 66.404 88.9287C66.0984 88.9287 65.8089 89.0738 65.632 89.321C65.321 89.7455 65.4175 90.3473 65.8411 90.659C66.0073 90.7772 66.2003 90.8417 66.3987 90.8417C66.7043 90.8417 66.9938 90.6966 67.1708 90.4494C67.3263 90.2398 67.3852 89.9873 67.3477 89.7347Z" fill="#EF4136"/>
<path d="M60.87 84.6139C60.7037 84.4903 60.5054 84.4258 60.3016 84.4258C59.996 84.4258 59.7172 84.5655 59.5349 84.8127C59.2185 85.2372 59.3097 85.8336 59.7279 86.1507C59.8941 86.2743 60.0925 86.3387 60.2962 86.3387C60.6019 86.3387 60.8807 86.199 61.063 85.9572C61.2131 85.753 61.2774 85.5005 61.2453 85.2479C61.2077 84.99 61.0791 84.7697 60.87 84.6139Z" fill="#EF4136"/>
<path d="M70.4137 91.9652C70.3762 91.7127 70.2368 91.4923 70.033 91.3419C69.8668 91.2237 69.6738 91.1592 69.4754 91.1592C69.1698 91.1592 68.8802 91.3096 68.7033 91.5568C68.5532 91.7664 68.4942 92.0189 68.5371 92.2715C68.5746 92.5133 68.7033 92.7282 68.8963 92.8787L68.9124 92.8894C68.9124 92.8894 68.9178 92.8894 68.9178 92.8948L69.0036 92.9593H69.0143C69.1537 93.0399 69.3145 93.0775 69.4754 93.0775C69.781 93.0775 70.0705 92.9324 70.2475 92.6799C70.3922 92.4703 70.4566 92.2124 70.4137 91.9652Z" fill="#EF4136"/>
<path d="M63.9156 86.8717C63.7493 86.7481 63.5563 86.6836 63.3526 86.6836C63.0523 86.6836 62.7628 86.8287 62.5858 87.0705C62.4357 87.2747 62.3714 87.5272 62.4089 87.7798C62.4464 88.0323 62.5805 88.2527 62.7842 88.4085C62.9504 88.5321 63.1435 88.5966 63.3472 88.5966C63.6475 88.5966 63.937 88.4515 64.1139 88.2097C64.2641 88.0055 64.3284 87.7529 64.2909 87.5004C64.2533 87.2478 64.1193 87.0221 63.9156 86.8717Z" fill="#EF4136"/>
<path d="M77.1376 97.6779C77.4432 97.248 77.3467 96.6516 76.9178 96.3453C76.7569 96.2271 76.5639 96.168 76.3655 96.168C76.0599 96.168 75.7704 96.3184 75.5881 96.5656C75.4379 96.7752 75.379 97.0277 75.4219 97.2803C75.4647 97.5328 75.5988 97.7532 75.8079 97.9036C75.9687 98.0218 76.1618 98.0809 76.3601 98.0809C76.6711 98.0756 76.9607 97.9251 77.1376 97.6779Z" fill="#EF4136"/>
<path d="M57.8565 82.336C57.6903 82.2071 57.4919 82.1426 57.2774 82.1426C56.9771 82.1426 56.6983 82.2823 56.516 82.5187C56.3606 82.7229 56.2962 82.9755 56.3284 83.228C56.3606 83.4806 56.4946 83.7063 56.693 83.8621C56.8592 83.9911 57.0629 84.0555 57.272 84.0555C57.5723 84.0555 57.8511 83.9158 58.0334 83.6794C58.3551 83.2603 58.2747 82.6584 57.8565 82.336Z" fill="#EF4136"/>
<path d="M73.3207 94.8937C73.4708 94.6842 73.5298 94.4316 73.4869 94.1844C73.4494 93.9426 73.3207 93.7277 73.1223 93.5772L73.1009 93.5611C72.9347 93.4429 72.747 93.3838 72.5432 93.3838C72.2376 93.3838 71.9481 93.5342 71.7658 93.7814C71.6157 93.991 71.5567 94.2436 71.5996 94.4907C71.6425 94.7433 71.7765 94.9636 71.9856 95.1141C72.1465 95.2323 72.3395 95.2914 72.5432 95.2914C72.8489 95.2914 73.1384 95.1409 73.3207 94.8937Z" fill="#EF4136"/>
<path d="M77.2981 15.2109C77.0783 15.2109 76.8638 15.2862 76.6922 15.4259C76.4938 15.5871 76.3705 15.8181 76.3491 16.0707C76.3223 16.3233 76.3973 16.5758 76.5582 16.7693C76.7405 16.9949 77.0086 17.1185 77.2981 17.1185C77.5179 17.1185 77.7324 17.0433 77.8986 16.9036C78.097 16.7424 78.2203 16.5113 78.2471 16.2588C78.2739 16.0062 78.1989 15.7537 78.038 15.5602C77.8557 15.3399 77.5876 15.2109 77.2981 15.2109Z" fill="#EF4136"/>
<path d="M22.4372 35.1028C22.6356 34.9416 22.7589 34.7105 22.7803 34.458C22.8071 34.2054 22.7321 33.9529 22.5712 33.7594C22.3889 33.5337 22.1208 33.4102 21.8313 33.4102C21.6115 33.4102 21.397 33.4854 21.2254 33.6251C21.027 33.7863 20.9037 34.0174 20.8823 34.2699C20.8555 34.5225 20.9305 34.775 21.0914 34.9685C21.2737 35.1942 21.5418 35.3178 21.8313 35.3178C22.0565 35.3178 22.271 35.2371 22.4372 35.1028Z" fill="#EF4136"/>
<path d="M133.581 33.6032C133.399 33.3775 133.131 33.2539 132.842 33.2539C132.622 33.2539 132.407 33.3291 132.241 33.4688C132.043 33.6301 131.919 33.8611 131.898 34.1137C131.871 34.3662 131.946 34.6188 132.107 34.8122C132.289 35.0379 132.557 35.1615 132.847 35.1615C133.067 35.1615 133.281 35.0863 133.447 34.9466C133.646 34.7854 133.769 34.5543 133.791 34.3017C133.817 34.0492 133.742 33.802 133.581 33.6032Z" fill="#EF4136"/>
<path d="M54.1853 79.7559C53.9655 79.7559 53.751 79.8311 53.5848 79.9708C53.3864 80.132 53.2631 80.3631 53.2417 80.6156C53.2148 80.8682 53.2899 81.1207 53.4508 81.3142C53.6331 81.5399 53.9011 81.6635 54.1907 81.6635C54.4105 81.6635 54.625 81.5882 54.7912 81.4485C54.9896 81.2873 55.1129 81.0562 55.1343 80.8037C55.1612 80.5511 55.0861 80.2986 54.9252 80.1051C54.7429 79.8848 54.4749 79.7559 54.1853 79.7559Z" fill="#EF4136"/>
</g>
<defs>
<filter id="filter0_d_1_23799" x="0.541016" y="0.707031" width="177.1" height="183.059" filterUnits="userSpaceOnUse" color-interpolation-filters="sRGB">
<feFlood flood-opacity="0" result="BackgroundImageFix"/>
<feColorMatrix in="SourceAlpha" type="matrix" values="0 0 0 0 0 0 0 0 0 0 0 0 0 0 0 0 0 0 127 0" result="hardAlpha"/>
<feOffset dy="4"/>
<feGaussianBlur stdDeviation="1.5"/>
<feComposite in2="hardAlpha" operator="out"/>
<feColorMatrix type="matrix" values="0 0 0 0 1 0 0 0 0 0.0594597 0 0 0 0 0 0 0 0 1 0"/>
<feBlend mode="normal" in2="BackgroundImageFix" result="effect1_dropShadow_1_23799"/>
<feBlend mode="normal" in="SourceGraphic" in2="effect1_dropShadow_1_23799" result="shape"/>
</filter>
</defs>
</svg>
