<svg width="10" height="10" viewBox="0 0 10 10" fill="none" xmlns="http://www.w3.org/2000/svg">
<path d="M9.85938 9.85938C9.67188 10.0469 9.32812 10.0469 9.14062 9.85938L5.01562 5.70312L0.859375 9.85938C0.671875 10.0469 0.328125 10.0469 0.140625 9.85938C-0.046875 9.67188 -0.046875 9.32812 0.140625 9.14062L4.29688 4.98438L0.140625 0.859375C-0.046875 0.671875 -0.046875 0.328125 0.140625 0.140625C0.328125 -0.046875 0.671875 -0.046875 0.859375 0.140625L5.01562 4.29688L9.14062 0.140625C9.32812 -0.046875 9.67188 -0.046875 9.85938 0.140625C10.0469 0.328125 10.0469 0.671875 9.85938 0.859375L5.70312 4.98438L9.85938 9.14062C10.0469 9.32812 10.0469 9.67188 9.85938 9.85938Z" fill="white"/>
</svg>
