<svg width="24" height="25" viewBox="0 0 24 25" fill="none" xmlns="http://www.w3.org/2000/svg">
<path d="M8 22.3233C7.72 22.3233 7.42998 22.2533 7.16998 22.1133C6.59998 21.8133 6.25 21.2133 6.25 20.5733V19.1534C3.23 18.8434 1.25 16.6233 1.25 13.4433V7.44336C1.25 4.00336 3.56 1.69336 7 1.69336H17C20.44 1.69336 22.75 4.00336 22.75 7.44336V13.4433C22.75 16.8833 20.44 19.1933 17 19.1933H13.23L8.96997 22.0334C8.67997 22.2234 8.34 22.3233 8 22.3233ZM7 3.18335C4.42 3.18335 2.75 4.85335 2.75 7.43335V13.4334C2.75 16.0134 4.42 17.6834 7 17.6834C7.41 17.6834 7.75 18.0234 7.75 18.4334V20.5634C7.75 20.6934 7.83 20.7534 7.88 20.7834C7.93 20.8134 8.03001 20.8434 8.14001 20.7734L12.59 17.8134C12.71 17.7334 12.86 17.6834 13.01 17.6834H17.01C19.59 17.6834 21.26 16.0134 21.26 13.4334V7.43335C21.26 4.85335 19.59 3.18335 17.01 3.18335H7V3.18335Z" fill="#7B7F91"/>
<path d="M11.9998 12.1133C11.5898 12.1133 11.2498 11.7733 11.2498 11.3633V11.1533C11.2498 9.99332 12.0998 9.42331 12.4198 9.20331C12.7898 8.95331 12.9098 8.78332 12.9098 8.52332C12.9098 8.02332 12.4998 7.61328 11.9998 7.61328C11.4998 7.61328 11.0898 8.02332 11.0898 8.52332C11.0898 8.93332 10.7498 9.27332 10.3398 9.27332C9.92984 9.27332 9.58984 8.93332 9.58984 8.52332C9.58984 7.19332 10.6698 6.11328 11.9998 6.11328C13.3298 6.11328 14.4098 7.19332 14.4098 8.52332C14.4098 9.66332 13.5698 10.2333 13.2598 10.4433C12.8698 10.7033 12.7498 10.8733 12.7498 11.1533V11.3633C12.7498 11.7833 12.4098 12.1133 11.9998 12.1133Z" fill="#7B7F91"/>
<path d="M12 14.6025C11.58 14.6025 11.25 14.2625 11.25 13.8525C11.25 13.4425 11.59 13.1025 12 13.1025C12.41 13.1025 12.75 13.4425 12.75 13.8525C12.75 14.2625 12.42 14.6025 12 14.6025Z" fill="#7B7F91"/>
</svg>
