<svg width="24" height="24" viewBox="0 0 24 24" xmlns="http://www.w3.org/2000/svg">
<path d="M22 8.6901C22 9.8801 21.81 10.9801 21.48 12.0001H2.52C2.19 10.9801 2 9.8801 2 8.6901C2 5.6001 4.49 3.1001 7.56 3.1001C9.37 3.1001 10.99 3.9801 12 5.3301C13.01 3.9801 14.63 3.1001 16.44 3.1001C19.51 3.1001 22 5.6001 22 8.6901Z" fill="url(#paint0_linear_1143_2710)"/>
<path d="M21.4795 12C19.8995 17 15.0295 19.99 12.6195 20.81C12.2795 20.93 11.7195 20.93 11.3795 20.81C8.96953 19.99 4.09953 17 2.51953 12H21.4795Z" fill="url(#paint1_linear_1143_2710)"/>
<defs>
<linearGradient id="paint0_linear_1143_2710" x1="22" y1="3.1001" x2="1.56025" y2="4.26162" gradientUnits="userSpaceOnUse">
<stop stop-color="#FF483C"/>
<stop offset="1" stop-color="#FF2C5A"/>
</linearGradient>
<linearGradient id="paint1_linear_1143_2710" x1="21.4795" y1="12" x2="2.09633" y2="13.0442" gradientUnits="userSpaceOnUse">
<stop stop-color="#FF483C"/>
<stop offset="1" stop-color="#FF2C5A"/>
</linearGradient>
</defs>
</svg>
