<svg width="24" height="24" viewBox="0 0 24 24" fill="none" xmlns="http://www.w3.org/2000/svg">
<path d="M12.0101 1.26018C11.3801 1.26018 10.7601 1.47017 10.2701 1.89017L8.69012 3.24018C8.53012 3.38017 8.13012 3.52018 7.92012 3.52018H6.17012C4.69012 3.52018 3.49012 4.72018 3.49012 6.20018V7.91018C3.49012 8.12018 3.35012 8.52018 3.22012 8.67018L1.86012 10.2702C1.04012 11.2402 1.04012 12.7602 1.86012 13.7402L3.22012 15.3402C3.35012 15.4902 3.49012 15.8902 3.49012 16.1002V17.8002C3.49012 19.2802 4.69012 20.4802 6.17012 20.4802H7.90012C8.11012 20.4802 8.50012 20.6302 8.67012 20.7702L10.2501 22.1202C11.2301 22.9502 12.7601 22.9502 13.7401 22.1202L15.3201 20.7702C15.4801 20.6302 15.8901 20.4902 16.1001 20.4902H17.8001C19.2801 20.4902 20.4801 19.2902 20.4801 17.8102V16.1102C20.4801 15.9002 20.6301 15.5102 20.7701 15.3402L22.1201 13.7602C22.9601 12.7702 22.9501 11.2402 22.1201 10.2702L20.7701 8.69018C20.6301 8.52017 20.4901 8.13018 20.4901 7.92018V6.22017C20.4901 4.74018 19.2901 3.54018 17.8101 3.54018H16.1101C15.9001 3.54018 15.5101 3.39017 15.3301 3.25018L13.7501 1.90018C13.2601 1.47017 12.6301 1.26018 12.0101 1.26018ZM6.17012 18.9802C5.52012 18.9802 4.99012 18.4502 4.99012 17.8002V16.1002C4.99012 15.5302 4.73012 14.8102 4.36012 14.3702L3.00012 12.7702C2.66012 12.3602 2.66012 11.6402 3.00012 11.2402L4.35012 9.65018C4.71012 9.24018 4.98012 8.49018 4.98012 7.92018V6.21017C4.98012 5.56017 5.51012 5.03018 6.16012 5.03018H7.90012C8.46012 5.03018 9.20012 4.76018 9.64012 4.39017L11.2301 3.03018C11.6401 2.68018 12.3601 2.68018 12.7701 3.03018L14.3501 4.38017C14.8001 4.76017 15.5301 5.02018 16.0901 5.02018H17.7901C18.4401 5.02018 18.9701 5.55018 18.9701 6.20018V7.90018C18.9701 8.46018 19.2401 9.19018 19.6101 9.64018L20.9701 11.2302C21.3201 11.6402 21.3201 12.3602 20.9701 12.7702L19.6201 14.3502C19.2401 14.8002 18.9801 15.5302 18.9801 16.0902V17.8002C18.9801 18.4502 18.4501 18.9802 17.8001 18.9802H16.1001C15.5301 18.9802 14.7901 19.2502 14.3501 19.6202L12.7601 20.9802C12.3501 21.3302 11.6401 21.3302 11.2201 20.9802L9.65012 19.6202C9.20012 19.2502 8.47012 18.9802 7.90012 18.9802H6.17012Z" fill="#292D32"/>
<path d="M12 7.12988C11.45 7.12988 11 7.57988 11 8.12988C11 8.67988 11.44 9.12988 12 9.12988C12.55 9.12988 13 8.67988 13 8.12988C13 7.57988 12.56 7.12988 12 7.12988Z" fill="#292D32"/>
<path d="M12 10.2801C11.59 10.2801 11.25 10.6201 11.25 11.0301V15.8701C11.25 16.2801 11.59 16.6201 12 16.6201C12.41 16.6201 12.75 16.2801 12.75 15.8701V11.0401C12.75 10.6201 12.42 10.2801 12 10.2801Z" fill="#292D32"/>
</svg>
