<svg width="14" height="20" viewBox="0 0 14 20" fill="none" xmlns="http://www.w3.org/2000/svg">
<path d="M5 6C5 5.73478 5.10536 5.48043 5.29289 5.29289C5.48043 5.10536 5.73478 5 6 5C6.26522 5 6.51957 5.10536 6.70711 5.29289C6.89464 5.48043 7 5.73478 7 6V9.43348C7 10.023 7.44442 10.5177 8.03059 10.5807C8.14947 10.5935 8.26565 10.6247 8.37496 10.6731L13.15 12.79C13.68 13.03 14 13.56 14 14.14V18.5C13.97 19.32 13.32 19.97 12.5 20H6C5.62 20 5.26 19.85 5 19.57L0.910843 16.065C0.470688 15.6877 0.438301 15.018 0.84 14.6C1.03 14.39 1.3 14.28 1.58 14.28C1.72441 14.28 1.86658 14.3158 1.99378 14.3842L2.21855 14.505C3.47617 15.1809 5 14.27 5 12.8422V6ZM6 2C7.06087 2 8.07828 2.42143 8.82843 3.17157C9.57857 3.92172 10 4.93913 10 6C10 7.14691 9.5323 8.15936 8.7757 8.88089C8.4633 9.17881 8 8.92138 8 8.4897C8 8.33074 8.06945 8.18113 8.17838 8.06537C8.68499 7.52704 9 6.79987 9 6C9 5.20435 8.68393 4.44129 8.12132 3.87868C7.55871 3.31607 6.79565 3 6 3C5.20435 3 4.44129 3.31607 3.87868 3.87868C3.31607 4.44129 3 5.20435 3 6C3 6.79987 3.31501 7.52704 3.82162 8.06537C3.93055 8.18113 4 8.33074 4 8.4897C4 8.92138 3.5367 9.17881 3.2243 8.88089C2.4677 8.15936 2 7.14691 2 6C2 4.93913 2.42143 3.92172 3.17157 3.17157C3.92172 2.42143 4.93913 2 6 2ZM6 0C7.5913 0 9.11742 0.632141 10.2426 1.75736C11.3679 2.88258 12 4.4087 12 6C12 7.58321 11.3842 9.01898 10.3868 10.0973C10.2537 10.2413 10.0425 10.2771 9.86361 10.1966C9.54007 10.051 9.48033 9.61152 9.71723 9.34741C10.039 8.9887 10.3083 8.58452 10.5159 8.14672C10.8341 7.47577 10.9994 6.74257 11 6C11 4.67392 10.4732 3.40215 9.53553 2.46447C8.59785 1.52678 7.32608 1 6 1C4.67392 1 3.40215 1.52678 2.46447 2.46447C1.52678 3.40215 1 4.67392 1 6C1 7.92876 2.08881 9.60081 3.69177 10.4331C3.87579 10.5287 4 10.7141 4 10.9215C4 11.2815 3.64297 11.5315 3.32119 11.37C1.35242 10.3817 0 8.34875 0 6C0 4.4087 0.632141 2.88258 1.75736 1.75736C2.88258 0.632141 4.4087 0 6 0Z" fill="white"/>
</svg>
