<svg width="51" height="46" viewBox="0 0 51 46" fill="none" xmlns="http://www.w3.org/2000/svg">
<path d="M28.7346 8.90679C24.9855 8.32032 21.7279 11.1395 20.709 13.7648C20.4841 10.4968 18.5992 7.60939 14.1793 7.01402C8.99981 6.36384 2.75698 11.6927 8.03542 21.7365C10.6532 26.6911 14.4466 30.6773 18.8309 33.9557C24.7686 31.3957 29.4656 27.9695 32.5633 23.717C38.5293 15.6562 34.0918 9.64878 28.7346 8.90679Z" fill="#EA3D3D"/>
<path d="M28.7346 8.90679C24.9855 8.32032 21.7279 11.1395 20.709 13.7648C20.4841 10.4968 18.5992 7.60939 14.1793 7.01402C8.99981 6.36384 2.75698 11.6927 8.03542 21.7365C10.6532 26.6911 14.4466 30.6773 18.8309 33.9557C24.7686 31.3957 29.4656 27.9695 32.5633 23.717C38.5293 15.6562 34.0918 9.64878 28.7346 8.90679Z" fill="url(#paint0_radial_1_23590)" fill-opacity="0.7"/>
<path d="M28.7346 8.90679C24.9855 8.32032 21.7279 11.1395 20.709 13.7648C20.4841 10.4968 18.5992 7.60939 14.1793 7.01402C8.99981 6.36384 2.75698 11.6927 8.03542 21.7365C10.6532 26.6911 14.4466 30.6773 18.8309 33.9557C24.7686 31.3957 29.4656 27.9695 32.5633 23.717C38.5293 15.6562 34.0918 9.64878 28.7346 8.90679Z" fill="url(#paint1_radial_1_23590)"/>
<path d="M46.0813 33.0652C44.8094 31.1699 42.1753 30.8218 40.6012 31.4718C41.9176 30.0133 42.5263 27.964 40.9449 25.7962C39.146 23.1783 34.0553 22.574 31.7763 29.1631C30.6597 32.4132 30.3916 35.7641 30.7054 39.0779C34.3968 40.6476 37.8306 41.4088 40.9667 41.0031C47.0584 40.3237 48.0121 35.8638 46.0813 33.0652Z" fill="#EA3D3D"/>
<path d="M46.0813 33.0652C44.8094 31.1699 42.1753 30.8218 40.6012 31.4718C41.9176 30.0133 42.5263 27.964 40.9449 25.7962C39.146 23.1783 34.0553 22.574 31.7763 29.1631C30.6597 32.4132 30.3916 35.7641 30.7054 39.0779C34.3968 40.6476 37.8306 41.4088 40.9667 41.0031C47.0584 40.3237 48.0121 35.8638 46.0813 33.0652Z" fill="url(#paint2_radial_1_23590)" fill-opacity="0.7"/>
<path d="M46.0813 33.0652C44.8094 31.1699 42.1753 30.8218 40.6012 31.4718C41.9176 30.0133 42.5263 27.964 40.9449 25.7962C39.146 23.1783 34.0553 22.574 31.7763 29.1631C30.6597 32.4132 30.3916 35.7641 30.7054 39.0779C34.3968 40.6476 37.8306 41.4088 40.9667 41.0031C47.0584 40.3237 48.0121 35.8638 46.0813 33.0652Z" fill="url(#paint3_radial_1_23590)"/>
<defs>
<radialGradient id="paint0_radial_1_23590" cx="0" cy="0" r="1" gradientUnits="userSpaceOnUse" gradientTransform="translate(16.6938 8.55238) rotate(76.6965) scale(23.4541 23.7073)">
<stop stop-color="white" stop-opacity="0.59"/>
<stop offset="0.697917" stop-color="white" stop-opacity="0"/>
<stop offset="1" stop-color="white" stop-opacity="0"/>
</radialGradient>
<radialGradient id="paint1_radial_1_23590" cx="0" cy="0" r="1" gradientUnits="userSpaceOnUse" gradientTransform="translate(23.7512 32.6613) rotate(-66.5689) scale(23.3458 27.5978)">
<stop stop-opacity="0.23"/>
<stop offset="0.861815" stop-opacity="0"/>
</radialGradient>
<radialGradient id="paint2_radial_1_23590" cx="0" cy="0" r="1" gradientUnits="userSpaceOnUse" gradientTransform="translate(37.6004 27.4989) rotate(77.9903) scale(14.3409 14.3803)">
<stop stop-color="white" stop-opacity="0.59"/>
<stop offset="0.697917" stop-color="white" stop-opacity="0"/>
<stop offset="1" stop-color="white" stop-opacity="0"/>
</radialGradient>
<radialGradient id="paint3_radial_1_23590" cx="0" cy="0" r="1" gradientUnits="userSpaceOnUse" gradientTransform="translate(41.5678 42.2997) rotate(-66.3948) scale(14.5446 16.4295)">
<stop stop-opacity="0.23"/>
<stop offset="0.861815" stop-opacity="0"/>
</radialGradient>
</defs>
</svg>
