<svg width="30" height="30" viewBox="0 0 30 30" fill="none" xmlns="http://www.w3.org/2000/svg">
<rect x="0.773438" y="0.636719" width="28.6364" height="28.6364" rx="6" fill="url(#paint0_linear_1_24354)"/>
<path d="M23.9615 9.50777C23.3826 9.75106 22.7742 9.92095 22.1512 10.0133C22.4436 10.0133 22.8709 9.45282 23.0395 9.24401C23.3117 8.91884 23.5178 8.54581 23.6467 8.14501C23.6467 8.14501 23.6467 8.07907 23.6467 8.05709C23.633 8.04938 23.6175 8.04531 23.6017 8.04531C23.5859 8.04531 23.5704 8.04938 23.5567 8.05709C22.8749 8.41298 22.1494 8.68257 21.3979 8.85937C21.3757 8.87191 21.3505 8.8785 21.3248 8.8785C21.2992 8.8785 21.274 8.87191 21.2517 8.85937C21.1977 8.7919 21.1375 8.72936 21.0718 8.67253C20.7576 8.4162 20.4049 8.20863 20.0262 8.05709C19.521 7.85359 18.9746 7.76709 18.4295 7.80433C17.8992 7.83795 17.3821 7.98023 16.9116 8.22194C16.43 8.46513 16.0066 8.80539 15.6693 9.22026C15.3321 9.63513 15.0887 10.1152 14.9552 10.6288C14.854 11.1258 14.854 11.6374 14.9552 12.1344C14.9552 12.2223 14.9552 12.2333 14.8765 12.2223C12.0308 11.9375 9.39644 10.6246 7.48934 8.54065C7.41063 8.45273 7.36565 8.45273 7.28695 8.54065C6.90418 9.23406 6.75983 10.0294 6.87525 10.8092C6.99066 11.589 7.35971 12.3118 7.92784 12.8707C8.07401 13.0026 8.22017 13.1345 8.37759 13.2554C7.88443 13.2174 7.40341 13.0868 6.96088 12.8707C6.87093 12.8707 6.82595 12.8707 6.81471 12.9367C6.804 13.0757 6.804 13.2153 6.81471 13.3543C6.9 14.003 7.16058 14.6179 7.56965 15.1355C7.97873 15.6532 8.52152 16.055 9.14217 16.2996C9.29195 16.3686 9.45092 16.4167 9.61441 16.4425C9.15335 16.5233 8.68124 16.5233 8.22018 16.4425C8.11898 16.4425 8.07401 16.4425 8.11899 16.5743C8.35853 17.1851 8.75391 17.7259 9.26756 18.1453C9.7812 18.5646 10.396 18.8486 11.0536 18.9702C11.1885 18.9702 11.3235 18.9702 11.4584 18.9702C11.4584 18.9702 11.5933 18.9702 11.4584 18.9702C10.885 19.4739 10.1939 19.8324 9.44576 20.0142C8.47025 20.3553 7.43086 20.4866 6.39869 20.3989C6.24127 20.3989 6.20754 20.3989 6.16257 20.3989C6.11759 20.3989 6.16257 20.4648 6.16257 20.4978C6.36581 20.6327 6.57596 20.7574 6.79222 20.8714C7.43971 21.2055 8.12199 21.4708 8.82735 21.6627C10.6453 22.1987 12.5753 22.2584 14.4243 21.8361C16.2732 21.4137 17.9762 20.5239 19.3628 19.2559C20.3517 18.212 21.1192 16.9869 21.621 15.6513C22.1227 14.3158 22.3488 12.8964 22.2862 11.475C22.2862 11.3651 22.4211 11.2991 22.511 11.2442C23.0564 10.8266 23.5374 10.3343 23.939 9.78252C24.0064 9.70634 24.0424 9.60844 24.0402 9.50777C24.0402 9.50777 24.0402 9.4748 23.9615 9.50777Z" fill="white"/>
<defs>
<linearGradient id="paint0_linear_1_24354" x1="25.2182" y1="4.82836" x2="4.96508" y2="25.0814" gradientUnits="userSpaceOnUse">
<stop stop-color="#33CCFF"/>
<stop offset="1" stop-color="#337FFF"/>
</linearGradient>
</defs>
</svg>
