<svg width="29" height="30" viewBox="0 0 29 30" fill="none" xmlns="http://www.w3.org/2000/svg">
<rect x="0.181641" y="0.636719" width="28.6364" height="28.6364" rx="6" fill="url(#paint0_radial_1_24348)"/>
<rect x="0.181641" y="0.636719" width="28.6364" height="28.6364" rx="6" fill="url(#paint1_radial_1_24348)"/>
<path fill-rule="evenodd" clip-rule="evenodd" d="M10.9284 23.9036H18.0708C19.4962 23.9008 20.8624 23.3337 21.8704 22.3264C22.8783 21.3191 23.4457 19.9536 23.4485 18.5291V11.3804C23.4457 9.95583 22.8783 8.5904 21.8704 7.58307C20.8624 6.57575 19.4962 6.00862 18.0708 6.00586H10.9284C9.50305 6.00862 8.13682 6.57575 7.12891 7.58307C6.121 8.5904 5.55354 9.95583 5.55078 11.3804V18.5291C5.55354 19.9536 6.121 21.3191 7.12891 22.3264C8.13682 23.3337 9.50305 23.9008 10.9284 23.9036ZM8.31768 8.77115C9.01031 8.07892 9.94892 7.68881 10.9284 7.68606H18.0708C19.0503 7.68881 19.989 8.07892 20.6816 8.77115C21.3742 9.46337 21.7646 10.4014 21.7673 11.3804V18.5291C21.7645 19.507 21.3739 20.444 20.6809 21.1346C19.988 21.8252 19.0494 22.213 18.0708 22.213H10.9284C9.94988 22.213 9.01125 21.8252 8.31832 21.1346C7.62539 20.444 7.23472 19.507 7.23195 18.5291V11.3804C7.23471 10.4014 7.62505 9.46337 8.31768 8.77115ZM19.2395 9.19922C19.033 9.19922 18.8311 9.26042 18.6594 9.37509C18.4877 9.48976 18.3538 9.65276 18.2748 9.84345C18.1958 10.0341 18.1751 10.244 18.2154 10.4464C18.2557 10.6489 18.3551 10.8348 18.5012 10.9808C18.6472 11.1267 18.8332 11.2261 19.0358 11.2664C19.2384 11.3066 19.4483 11.286 19.6391 11.207C19.8299 11.128 19.993 10.9942 20.1077 10.8226C20.2225 10.651 20.2837 10.4492 20.2837 10.2428C20.2837 9.96604 20.1737 9.70059 19.9779 9.50488C19.7821 9.30917 19.5165 9.19922 19.2395 9.19922ZM14.5719 10.5664C13.6965 10.5644 12.8402 10.8223 12.1118 11.3075C11.3834 11.7927 10.8157 12.4833 10.4807 13.2916C10.1458 14.0999 10.0586 14.9894 10.2304 15.8472C10.4022 16.7051 10.8252 17.4926 11.4457 18.1097C12.0661 18.7269 12.8561 19.1458 13.7152 19.3135C14.5744 19.4811 15.464 19.3898 16.2711 19.0512C17.0783 18.7126 17.7665 18.1419 18.2486 17.4116C18.7306 16.6813 18.9846 15.8244 18.9784 14.9495C18.9702 13.786 18.5026 12.6728 17.6774 11.852C16.8522 11.0311 15.7361 10.5691 14.5719 10.5664ZM14.5719 17.7881C14.5719 17.7939 14.5672 17.7986 14.5614 17.7986C14.0049 17.7986 13.4607 17.6346 12.9969 17.327C12.5301 17.0175 12.1658 16.5765 11.95 16.06C11.7343 15.5434 11.6767 14.9744 11.7847 14.4251C11.8927 13.8758 12.1614 13.3709 12.5568 12.9743C12.9521 12.5778 13.4563 12.3074 14.0055 12.1974C14.5547 12.0874 15.1242 12.1428 15.6419 12.3566C16.1596 12.5703 16.6022 12.9328 16.9136 13.3981C17.225 13.8634 17.3912 14.4106 17.3912 14.9704C17.383 15.7142 17.083 16.4251 16.5558 16.9501C16.031 17.4726 15.3228 17.7695 14.5823 17.7776C14.5765 17.7777 14.5719 17.7823 14.5719 17.7881Z" fill="white"/>
<defs>
<radialGradient id="paint0_radial_1_24348" cx="0" cy="0" r="1" gradientUnits="userSpaceOnUse" gradientTransform="translate(3.3315 4.64609) rotate(51.9112) scale(40.3864)">
<stop stop-color="#9331FF"/>
<stop offset="0.46384" stop-color="#FF1E9D"/>
</radialGradient>
<radialGradient id="paint1_radial_1_24348" cx="0" cy="0" r="1" gradientUnits="userSpaceOnUse" gradientTransform="translate(7.62696 30.4188) rotate(-65.2249) scale(24.6006 30.4119)">
<stop stop-color="#FFC600"/>
<stop offset="0.577098" stop-color="#FE311E"/>
<stop offset="1" stop-color="#FE311E" stop-opacity="0"/>
</radialGradient>
</defs>
</svg>
