<svg width="13" height="12" viewBox="0 0 13 12" fill="none" xmlns="http://www.w3.org/2000/svg">
<path fill-rule="evenodd" clip-rule="evenodd" d="M6.17401 11.838C4.72693 10.9474 3.38074 9.89926 2.15953 8.71227C1.30096 7.85746 0.647337 6.81534 0.248731 5.66575C-0.468571 3.4357 0.369286 0.882711 2.71408 0.127174C4.34335 -0.397868 5.29833 0.822909 6.33676 1.60219C7.37558 0.823858 8.31792 -0.397868 9.94738 0.127174C12.2922 0.882711 13.1361 3.4357 12.4188 5.66575C12.0201 6.81534 11.3665 7.85746 10.508 8.71227C9.28674 9.89926 7.94055 10.9474 6.49348 11.838L6.33676 11.9355L6.17401 11.838Z" fill="#EA3D3D"/>
<path fill-rule="evenodd" clip-rule="evenodd" d="M6.17401 11.838C4.72693 10.9474 3.38074 9.89926 2.15953 8.71227C1.30096 7.85746 0.647337 6.81534 0.248731 5.66575C-0.468571 3.4357 0.369286 0.882711 2.71408 0.127174C4.34335 -0.397868 5.29833 0.822909 6.33676 1.60219C7.37558 0.823858 8.31792 -0.397868 9.94738 0.127174C12.2922 0.882711 13.1361 3.4357 12.4188 5.66575C12.0201 6.81534 11.3665 7.85746 10.508 8.71227C9.28674 9.89926 7.94055 10.9474 6.49348 11.838L6.33676 11.9355L6.17401 11.838Z" fill="url(#paint0_radial_1_24037)" fill-opacity="0.7"/>
<path fill-rule="evenodd" clip-rule="evenodd" d="M6.17401 11.838C4.72693 10.9474 3.38074 9.89926 2.15953 8.71227C1.30096 7.85746 0.647337 6.81534 0.248731 5.66575C-0.468571 3.4357 0.369286 0.882711 2.71408 0.127174C4.34335 -0.397868 5.29833 0.822909 6.33676 1.60219C7.37558 0.823858 8.31792 -0.397868 9.94738 0.127174C12.2922 0.882711 13.1361 3.4357 12.4188 5.66575C12.0201 6.81534 11.3665 7.85746 10.508 8.71227C9.28674 9.89926 7.94055 10.9474 6.49348 11.838L6.33676 11.9355L6.17401 11.838Z" fill="url(#paint1_radial_1_24037)"/>
<defs>
<radialGradient id="paint0_radial_1_24037" cx="0" cy="0" r="1" gradientUnits="userSpaceOnUse" gradientTransform="translate(3.34259 2.48656) rotate(49.3691) scale(10.2662 10.3771)">
<stop stop-color="white" stop-opacity="0.59"/>
<stop offset="0.697917" stop-color="white" stop-opacity="0"/>
<stop offset="1" stop-color="white" stop-opacity="0"/>
</radialGradient>
<radialGradient id="paint1_radial_1_24037" cx="0" cy="0" r="1" gradientUnits="userSpaceOnUse" gradientTransform="translate(10.9315 10.4436) rotate(-93.8947) scale(10.2185 12.0804)">
<stop stop-opacity="0.23"/>
<stop offset="0.861815" stop-opacity="0"/>
</radialGradient>
</defs>
</svg>
