<svg width="45" height="38" viewBox="0 0 45 38" fill="none" xmlns="http://www.w3.org/2000/svg">
<path opacity="0.4" d="M42.7629 15.329C42.3708 14.7446 41.5587 14.6373 41.0734 14.8377C41.4792 14.3881 41.6669 13.7562 41.1793 13.0879C40.6247 12.2808 39.0552 12.0945 38.3526 14.1259C38.0084 15.128 37.9257 16.161 38.0225 17.1827C39.1605 17.6666 40.2192 17.9013 41.1861 17.7763C43.0641 17.5668 43.3582 16.1918 42.7629 15.329Z" fill="url(#paint0_linear_1_23991)"/>
<path opacity="0.4" d="M4.56445 1.62227C3.86225 1.66845 3.36212 2.31724 3.29211 2.83758C3.10664 2.26095 2.65415 1.78174 1.83142 1.86834C0.854978 1.94339 -0.093328 3.20777 1.31178 4.83447C2.00604 5.63482 2.85835 6.22445 3.79076 6.65314C4.7802 5.91125 5.51416 5.11307 5.89089 4.21385C6.65156 2.48398 5.60946 1.54 4.56445 1.62227Z" fill="url(#paint1_linear_1_23991)"/>
<path opacity="0.4" d="M12.9193 32.2466C12.3841 32.7035 12.3712 33.5226 12.6262 33.9815C12.1328 33.6303 11.4836 33.5167 10.8759 34.0781C10.1381 34.7221 10.1341 36.3026 12.233 36.7663C13.2681 36.9926 14.3038 36.9556 15.3075 36.7416C15.6569 35.5553 15.7679 34.4767 15.5322 33.5307C15.1075 31.6893 13.7077 31.5558 12.9193 32.2466Z" fill="url(#paint2_linear_1_23991)"/>
<path d="M29.5912 7.125H26.2838C24.855 7.125 24 7.98 24 9.40875V12.7162C24 14.145 24.855 15 26.2838 15H29.5912C31.02 15 31.875 14.145 31.875 12.7162V9.40875C31.875 7.98 31.02 7.125 29.5912 7.125ZM30.3113 11.265C29.895 12.5925 28.4437 13.3125 27.9375 13.3125C27.4313 13.3125 25.9912 12.615 25.5637 11.265C25.4962 11.0625 25.4625 10.8375 25.4625 10.6238C25.4625 9.8925 25.8337 9.13875 26.61 8.89125C27.0712 8.745 27.5662 8.82375 27.915 9.11625C28.275 8.835 28.77 8.745 29.2425 8.89125C30.2775 9.2175 30.6038 10.3762 30.3113 11.265Z" fill="#FF2C5A"/>
<path opacity="0.4" d="M29.5912 15H26.2838C24.855 15 24 14.145 24 12.7162V9.40875C24 8.95875 24.09 8.57625 24.2475 8.25H13.875C10.77 8.25 8.25 10.7587 8.25 13.8525V20.58V21.705C8.25 24.7987 10.77 27.3075 13.875 27.3075H15.5625C15.8663 27.3075 16.2712 27.51 16.4625 27.7575L18.15 29.9963C18.8925 30.9862 20.1075 30.9862 20.85 29.9963L22.5375 27.7575C22.7512 27.4762 23.0887 27.3075 23.4375 27.3075H25.125C28.23 27.3075 30.75 24.7987 30.75 21.705V14.7413C30.4237 14.91 30.0412 15 29.5912 15Z" fill="#FF2C5A"/>
<path d="M19.5 19.5C18.87 19.5 18.375 18.9937 18.375 18.375C18.375 17.7562 18.8812 17.25 19.5 17.25C20.1187 17.25 20.625 17.7562 20.625 18.375C20.625 18.9937 20.13 19.5 19.5 19.5Z" fill="#FF2C5A"/>
<path d="M24 19.5C23.37 19.5 22.875 18.9937 22.875 18.375C22.875 17.7562 23.3812 17.25 24 17.25C24.6187 17.25 25.125 17.7562 25.125 18.375C25.125 18.9937 24.63 19.5 24 19.5Z" fill="#FF2C5A"/>
<path d="M15 19.5C14.37 19.5 13.875 18.9937 13.875 18.375C13.875 17.7562 14.3812 17.25 15 17.25C15.6187 17.25 16.125 17.7562 16.125 18.375C16.125 18.9937 15.63 19.5 15 19.5Z" fill="#FF2C5A"/>
<defs>
<linearGradient id="paint0_linear_1_23991" x1="43.8673" y1="14.9301" x2="41.8771" y2="13.9503" gradientUnits="userSpaceOnUse">
<stop stop-color="#FF483C"/>
<stop offset="1" stop-color="#FF2C5A"/>
</linearGradient>
<linearGradient id="paint1_linear_1_23991" x1="4.77326" y1="0.466772" x2="2.92745" y2="1.69717" gradientUnits="userSpaceOnUse">
<stop stop-color="#FF483C"/>
<stop offset="1" stop-color="#FF2C5A"/>
</linearGradient>
<linearGradient id="paint2_linear_1_23991" x1="12.3958" y1="31.1956" x2="11.652" y2="33.2855" gradientUnits="userSpaceOnUse">
<stop stop-color="#FF483C"/>
<stop offset="1" stop-color="#FF2C5A"/>
</linearGradient>
</defs>
</svg>
