<svg width="47" height="38" viewBox="0 0 47 38" fill="none" xmlns="http://www.w3.org/2000/svg">
<path d="M27.8129 33.2504V33.6129C25.9629 34.8004 23.7504 35.5004 21.3754 35.5004C18.9629 35.5004 16.7129 34.7754 14.8379 33.5379V33.2504C14.8379 30.3379 17.7504 27.9629 21.3254 27.9629C24.9129 27.9629 27.8129 30.3379 27.8129 33.2504Z" fill="#FF2C5A"/>
<path opacity="0.4" d="M33.25 23.625C33.25 27.8125 31.0875 31.4875 27.8125 33.6125V33.25C27.8125 30.3375 24.9125 27.9625 21.325 27.9625C17.75 27.9625 14.8375 30.3375 14.8375 33.25V33.5375C11.625 31.4125 9.5 27.775 9.5 23.625C9.5 17.0625 14.8125 11.75 21.375 11.75C23.0125 11.75 24.575 12.075 26 12.675C25.8375 13.175 25.75 13.7 25.75 14.25C25.75 15.1875 26.0125 16.075 26.475 16.825C26.725 17.25 27.05 17.6375 27.425 17.9625C28.3 18.7625 29.4625 19.25 30.75 19.25C31.3 19.25 31.825 19.1625 32.3125 18.9875C32.9125 20.4125 33.25 21.9875 33.25 23.625Z" fill="#FF2C5A"/>
<path d="M34.4625 10.9125C33.5625 9.88752 32.225 9.25 30.75 9.25C29.35 9.25 28.075 9.82503 27.1625 10.7625C26.6375 11.3 26.2375 11.95 26 12.675C25.8375 13.175 25.75 13.7 25.75 14.25C25.75 15.1875 26.0125 16.075 26.475 16.825C26.725 17.25 27.05 17.6375 27.425 17.9625C28.3 18.7625 29.4625 19.25 30.75 19.25C31.3 19.25 31.825 19.1625 32.3125 18.9875C33.4625 18.625 34.425 17.8375 35.025 16.825C35.2875 16.4 35.4875 15.9125 35.6 15.4125C35.7 15.0375 35.75 14.65 35.75 14.25C35.75 12.975 35.2625 11.8 34.4625 10.9125ZM32.6125 15.1625H31.6875V16.1375C31.6875 16.65 31.2625 17.075 30.75 17.075C30.2375 17.075 29.8125 16.65 29.8125 16.1375V15.1625H28.8875C28.375 15.1625 27.95 14.7375 27.95 14.225C27.95 13.7125 28.375 13.2875 28.8875 13.2875H29.8125V12.4C29.8125 11.8875 30.2375 11.4625 30.75 11.4625C31.2625 11.4625 31.6875 11.8875 31.6875 12.4V13.2875H32.6125C33.125 13.2875 33.55 13.7125 33.55 14.225C33.55 14.7375 33.1375 15.1625 32.6125 15.1625Z" fill="#FF2C5A"/>
<path d="M21.325 26.4127C23.2649 26.4127 24.8375 24.8401 24.8375 22.9002C24.8375 20.9603 23.2649 19.3877 21.325 19.3877C19.3851 19.3877 17.8125 20.9603 17.8125 22.9002C17.8125 24.8401 19.3851 26.4127 21.325 26.4127Z" fill="#FF2C5A"/>
<path opacity="0.4" d="M44.7649 28.329C44.3727 27.7446 43.5606 27.6373 43.0753 27.8377C43.4812 27.3881 43.6688 26.7562 43.1813 26.0879C42.6267 25.2808 41.0572 25.0945 40.3546 27.1259C40.0103 28.128 39.9277 29.161 40.0244 30.1827C41.1625 30.6666 42.2211 30.9013 43.188 30.7763C45.0661 30.5668 45.3601 29.1918 44.7649 28.329Z" fill="url(#paint0_linear_1_23966)"/>
<path opacity="0.4" d="M31.4785 2.53144C30.7763 2.57763 30.2762 3.22642 30.2062 3.74676C30.0207 3.17013 29.5682 2.69092 28.7455 2.77752C27.769 2.85257 26.8207 4.11695 28.2258 5.74365C28.9201 6.544 29.7724 7.13363 30.7048 7.56232C31.6943 6.82043 32.4282 6.02225 32.805 5.12303C33.5656 3.39316 32.5235 2.44918 31.4785 2.53144Z" fill="url(#paint1_linear_1_23966)"/>
<path opacity="0.4" d="M3.17911 21.4742C2.6439 21.9311 2.63098 22.7502 2.88601 23.2091C2.39255 22.8578 1.74332 22.7443 1.13567 23.3057C0.397905 23.9497 0.393875 25.5302 2.49281 25.9938C3.52786 26.2202 4.56357 26.1831 5.56727 25.9692C5.9167 24.7829 6.02771 23.7042 5.79196 22.7582C5.36725 20.9168 3.96751 20.7834 3.17911 21.4742Z" fill="url(#paint2_linear_1_23966)"/>
<defs>
<linearGradient id="paint0_linear_1_23966" x1="45.8693" y1="27.9301" x2="43.8791" y2="26.9503" gradientUnits="userSpaceOnUse">
<stop stop-color="#FF483C"/>
<stop offset="1" stop-color="#FF2C5A"/>
</linearGradient>
<linearGradient id="paint1_linear_1_23966" x1="31.6873" y1="1.37595" x2="29.8415" y2="2.60635" gradientUnits="userSpaceOnUse">
<stop stop-color="#FF483C"/>
<stop offset="1" stop-color="#FF2C5A"/>
</linearGradient>
<linearGradient id="paint2_linear_1_23966" x1="2.65553" y1="20.4232" x2="1.9118" y2="22.5131" gradientUnits="userSpaceOnUse">
<stop stop-color="#FF483C"/>
<stop offset="1" stop-color="#FF2C5A"/>
</linearGradient>
</defs>
</svg>
