<svg width="47" height="35" viewBox="0 0 47 35" fill="none" xmlns="http://www.w3.org/2000/svg">
<path d="M28.7702 29.98H19.2302C18.8102 29.98 18.4302 29.71 18.2902 29.32L14.1302 17.67C13.8002 16.74 14.8602 15.95 15.6502 16.52L19.6502 19.38C20.1802 19.76 20.9402 19.53 21.1702 18.92L23.0602 13.88C23.3802 13.01 24.6102 13.01 24.9302 13.88L26.8202 18.92C27.0502 19.54 27.8002 19.76 28.3402 19.38L32.3402 16.52C33.1402 15.95 34.1902 16.75 33.8602 17.67L29.7002 29.32C29.5702 29.71 29.1902 29.98 28.7702 29.98Z" fill="#FF2C5A"/>
<path d="M29 33H19C18.59 33 18.25 32.66 18.25 32.25C18.25 31.84 18.59 31.5 19 31.5H29C29.41 31.5 29.75 31.84 29.75 32.25C29.75 32.66 29.41 33 29 33Z" fill="#FF9EB3"/>
<path d="M26.5 25.75H21.5C21.09 25.75 20.75 25.41 20.75 25C20.75 24.59 21.09 24.25 21.5 24.25H26.5C26.91 24.25 27.25 24.59 27.25 25C27.25 25.41 26.91 25.75 26.5 25.75Z" fill="#FF9EB3"/>
<path opacity="0.4" d="M44.7649 28.329C44.3727 27.7446 43.5606 27.6373 43.0753 27.8377C43.4812 27.3881 43.6688 26.7562 43.1813 26.0879C42.6267 25.2808 41.0572 25.0945 40.3546 27.1259C40.0103 28.128 39.9277 29.161 40.0244 30.1827C41.1625 30.6666 42.2211 30.9013 43.188 30.7763C45.0661 30.5668 45.3601 29.1918 44.7649 28.329Z" fill="url(#paint0_linear_1_24015)"/>
<path opacity="0.4" d="M31.4785 2.53144C30.7763 2.57763 30.2762 3.22642 30.2062 3.74676C30.0207 3.17013 29.5682 2.69092 28.7455 2.77752C27.769 2.85257 26.8207 4.11695 28.2258 5.74365C28.9201 6.544 29.7724 7.13363 30.7048 7.56232C31.6943 6.82043 32.4282 6.02225 32.805 5.12303C33.5656 3.39316 32.5235 2.44918 31.4785 2.53144Z" fill="url(#paint1_linear_1_24015)"/>
<path opacity="0.4" d="M3.17911 21.4742C2.6439 21.9311 2.63098 22.7502 2.88601 23.2091C2.39255 22.8578 1.74332 22.7443 1.13567 23.3057C0.397905 23.9497 0.393875 25.5302 2.49281 25.9938C3.52786 26.2202 4.56357 26.1831 5.56727 25.9692C5.9167 24.7829 6.02771 23.7042 5.79196 22.7582C5.36725 20.9168 3.96751 20.7834 3.17911 21.4742Z" fill="url(#paint2_linear_1_24015)"/>
<defs>
<linearGradient id="paint0_linear_1_24015" x1="45.8693" y1="27.9301" x2="43.8791" y2="26.9503" gradientUnits="userSpaceOnUse">
<stop stop-color="#FF483C"/>
<stop offset="1" stop-color="#FF2C5A"/>
</linearGradient>
<linearGradient id="paint1_linear_1_24015" x1="31.6873" y1="1.37595" x2="29.8415" y2="2.60635" gradientUnits="userSpaceOnUse">
<stop stop-color="#FF483C"/>
<stop offset="1" stop-color="#FF2C5A"/>
</linearGradient>
<linearGradient id="paint2_linear_1_24015" x1="2.65553" y1="20.4232" x2="1.9118" y2="22.5131" gradientUnits="userSpaceOnUse">
<stop stop-color="#FF483C"/>
<stop offset="1" stop-color="#FF2C5A"/>
</linearGradient>
</defs>
</svg>
