<svg width="45" height="38" viewBox="0 0 45 38" fill="none" xmlns="http://www.w3.org/2000/svg">
<path opacity="0.4" d="M42.7629 15.329C42.3708 14.7446 41.5587 14.6373 41.0734 14.8377C41.4792 14.3881 41.6669 13.7562 41.1793 13.0879C40.6247 12.2808 39.0552 12.0945 38.3526 14.1259C38.0084 15.128 37.9257 16.161 38.0225 17.1827C39.1605 17.6666 40.2192 17.9013 41.1861 17.7763C43.0641 17.5668 43.3582 16.1918 42.7629 15.329Z" fill="url(#paint0_linear_1_24008)"/>
<path opacity="0.4" d="M4.56445 1.62227C3.86225 1.66845 3.36212 2.31724 3.29211 2.83758C3.10664 2.26095 2.65415 1.78174 1.83142 1.86834C0.854978 1.94339 -0.093328 3.20777 1.31178 4.83447C2.00604 5.63482 2.85835 6.22445 3.79076 6.65314C4.7802 5.91125 5.51416 5.11307 5.89089 4.21385C6.65156 2.48398 5.60946 1.54 4.56445 1.62227Z" fill="url(#paint1_linear_1_24008)"/>
<path opacity="0.4" d="M12.9193 32.2466C12.3841 32.7035 12.3712 33.5226 12.6262 33.9815C12.1328 33.6303 11.4836 33.5167 10.8759 34.0781C10.1381 34.7221 10.1341 36.3026 12.233 36.7663C13.2681 36.9926 14.3038 36.9556 15.3075 36.7416C15.6569 35.5553 15.7679 34.4767 15.5322 33.5307C15.1075 31.6893 13.7077 31.5558 12.9193 32.2466Z" fill="url(#paint2_linear_1_24008)"/>
<path d="M30.3186 6.7002C32.3517 6.7002 34 8.3121 34 10.3006V24.6997C34 26.6883 32.3517 28.3002 30.3186 28.3002H10.6815C8.64835 28.3002 7 26.6883 7 24.6997V10.3006C7 8.3121 8.64835 6.7002 10.6815 6.7002H30.3186ZM18.0254 21.7297H12.4C12.2804 21.7283 12.1617 21.7505 12.0507 21.795C11.9396 21.8395 11.8385 21.9054 11.7529 21.9891C11.6674 22.0727 11.5992 22.1724 11.5523 22.2824C11.5053 22.3924 11.4805 22.5106 11.4793 22.6302C11.4793 23.127 11.8911 23.5306 12.4 23.5306H18.0254C18.1449 23.5319 18.2635 23.5096 18.3744 23.465C18.4853 23.4204 18.5863 23.3545 18.6716 23.2708C18.757 23.1872 18.8251 23.0876 18.8719 22.9777C18.9188 22.8678 18.9436 22.7497 18.9448 22.6302C18.9436 22.5107 18.9188 22.3926 18.8719 22.2827C18.8251 22.1728 18.757 22.0732 18.6716 21.9896C18.5863 21.9059 18.4853 21.84 18.3744 21.7954C18.2635 21.7508 18.1449 21.7285 18.0254 21.7297ZM25.5625 11.1997C23.5051 11.1997 21.8298 12.8076 21.8298 14.8002C21.8298 15.8437 22.2888 16.782 23.0232 17.4394C21.6327 18.2602 20.7052 19.7385 20.7052 21.4273C20.7052 21.9093 20.7808 22.3831 20.928 22.8354C21.0832 23.3079 21.6016 23.5698 22.0849 23.4186C22.199 23.3844 22.3051 23.3279 22.397 23.2522C22.489 23.1766 22.565 23.0834 22.6205 22.9781C22.6761 22.8728 22.7101 22.7574 22.7206 22.6388C22.7311 22.5202 22.7178 22.4007 22.6816 22.2873C22.5914 22.0096 22.5458 21.7193 22.5466 21.4273C22.5466 19.8411 23.8925 18.5478 25.5625 18.5478C27.2325 18.5478 28.5798 19.8411 28.5798 21.4273C28.5798 21.6609 28.5514 21.889 28.4947 22.1104C28.4662 22.2262 28.4611 22.3464 28.4795 22.4641C28.4979 22.5818 28.5395 22.6947 28.602 22.7962C28.6644 22.8977 28.7464 22.9858 28.8431 23.0553C28.9399 23.1249 29.0495 23.1745 29.1657 23.2012C29.4004 23.2601 29.649 23.2244 29.8576 23.1016C30.0662 22.9789 30.2182 22.779 30.2808 22.5451C30.3739 22.1806 30.4198 21.8067 30.4198 21.4273C30.4198 19.7385 29.4923 18.2602 28.1019 17.4367C28.8363 16.782 29.2952 15.8437 29.2952 14.8002C29.2952 12.8076 27.6213 11.1997 25.5625 11.1997ZM18.0254 17.0047H12.4C12.2804 17.0033 12.1617 17.0255 12.0507 17.07C11.9396 17.1145 11.8385 17.1804 11.7529 17.2641C11.6674 17.3477 11.5992 17.4474 11.5523 17.5574C11.5053 17.6674 11.4805 17.7856 11.4793 17.9052C11.4793 18.402 11.8911 18.8056 12.4 18.8056H18.0254C18.1449 18.8069 18.2635 18.7846 18.3744 18.74C18.4853 18.6954 18.5863 18.6295 18.6716 18.5458C18.757 18.4622 18.8251 18.3626 18.8719 18.2527C18.9188 18.1428 18.9436 18.0247 18.9448 17.9052C18.9436 17.7857 18.9188 17.6676 18.8719 17.5577C18.8251 17.4478 18.757 17.3482 18.6716 17.2646C18.5863 17.1809 18.4853 17.115 18.3744 17.0704C18.2635 17.0258 18.1449 17.0035 18.0254 17.0047ZM25.5625 13.0006C26.6115 13.0006 27.4552 13.8106 27.4552 14.8002C27.4552 15.7911 26.6115 16.5997 25.5625 16.5997C24.5135 16.5997 23.6698 15.7897 23.6698 14.8002C23.6698 13.8093 24.5135 13.0006 25.5625 13.0006ZM18.0254 12.2797H12.4C12.2804 12.2783 12.1617 12.3005 12.0507 12.345C11.9396 12.3895 11.8385 12.4554 11.7529 12.5391C11.6674 12.6227 11.5992 12.7224 11.5523 12.8324C11.5053 12.9424 11.4805 13.0606 11.4793 13.1802C11.4793 13.677 11.8911 14.0806 12.4 14.0806H18.0254C18.1449 14.0819 18.2635 14.0596 18.3744 14.015C18.4853 13.9704 18.5863 13.9045 18.6716 13.8208C18.757 13.7372 18.8251 13.6376 18.8719 13.5277C18.9188 13.4178 18.9436 13.2997 18.9448 13.1802C18.9436 13.0607 18.9188 12.9426 18.8719 12.8327C18.8251 12.7228 18.757 12.6232 18.6716 12.5396C18.5863 12.4559 18.4853 12.39 18.3744 12.3454C18.2635 12.3008 18.1449 12.2785 18.0254 12.2797Z" fill="url(#paint3_linear_1_24008)"/>
<defs>
<linearGradient id="paint0_linear_1_24008" x1="43.8673" y1="14.9301" x2="41.8771" y2="13.9503" gradientUnits="userSpaceOnUse">
<stop stop-color="#FF483C"/>
<stop offset="1" stop-color="#FF2C5A"/>
</linearGradient>
<linearGradient id="paint1_linear_1_24008" x1="4.77326" y1="0.466772" x2="2.92745" y2="1.69717" gradientUnits="userSpaceOnUse">
<stop stop-color="#FF483C"/>
<stop offset="1" stop-color="#FF2C5A"/>
</linearGradient>
<linearGradient id="paint2_linear_1_24008" x1="12.3958" y1="31.1956" x2="11.652" y2="33.2855" gradientUnits="userSpaceOnUse">
<stop stop-color="#FF483C"/>
<stop offset="1" stop-color="#FF2C5A"/>
</linearGradient>
<linearGradient id="paint3_linear_1_24008" x1="34" y1="6.70019" x2="6.34486" y2="7.57436" gradientUnits="userSpaceOnUse">
<stop stop-color="#FF483C"/>
<stop offset="1" stop-color="#FF2C5A"/>
</linearGradient>
</defs>
</svg>
