<svg width="47" height="36" viewBox="0 0 47 36" fill="none" xmlns="http://www.w3.org/2000/svg">
<path d="M25.4993 9.41699C22.3335 9.41699 19.7598 11.9907 19.7598 15.1566C19.7598 18.262 22.1885 20.7753 25.3543 20.8841C25.451 20.872 25.5477 20.872 25.6202 20.8841C25.6443 20.8841 25.6564 20.8841 25.6806 20.8841C25.6927 20.8841 25.6927 20.8841 25.7048 20.8841C28.7981 20.7753 31.2268 18.262 31.2389 15.1566C31.2389 11.9907 28.6652 9.41699 25.4993 9.41699Z" fill="#FF2C5A"/>
<path opacity="0.4" d="M31.6391 24.1104C28.2679 21.8629 22.77 21.8629 19.3746 24.1104C17.84 25.1254 16.9941 26.515 16.9941 28.0013C16.9941 29.4875 17.84 30.865 19.3625 31.88C21.0541 33.0158 23.2775 33.5838 25.5008 33.5838C27.7241 33.5838 29.9475 33.0158 31.6391 31.88C33.1616 30.8529 34.0075 29.4754 34.0075 27.9771C33.9954 26.5029 33.1616 25.1133 31.6391 24.1104Z" fill="#FF2C5A"/>
<path d="M24.7385 30.2728C24.5451 30.2728 24.3518 30.1882 24.2068 30.0553L22.6843 28.5328C22.3943 28.2428 22.3943 27.7595 22.6843 27.4695C22.9743 27.1795 23.4576 27.1795 23.7476 27.4695L24.7385 28.4603L27.2518 25.947C27.5418 25.657 28.0251 25.657 28.3151 25.947C28.6051 26.237 28.6051 26.7203 28.3151 27.0103L25.2701 30.0553C25.1251 30.2003 24.9318 30.2728 24.7385 30.2728Z" fill="#FF2C5A"/>
<path opacity="0.4" d="M44.7649 28.329C44.3727 27.7446 43.5606 27.6373 43.0753 27.8377C43.4812 27.3881 43.6688 26.7562 43.1813 26.0879C42.6267 25.2808 41.0572 25.0945 40.3546 27.1259C40.0103 28.128 39.9277 29.161 40.0244 30.1827C41.1625 30.6666 42.2211 30.9013 43.188 30.7763C45.0661 30.5668 45.3601 29.1918 44.7649 28.329Z" fill="url(#paint0_linear_1_23979)"/>
<path opacity="0.4" d="M31.4785 2.53144C30.7763 2.57763 30.2762 3.22642 30.2062 3.74676C30.0207 3.17013 29.5682 2.69092 28.7455 2.77752C27.769 2.85257 26.8207 4.11695 28.2258 5.74365C28.9201 6.544 29.7724 7.13363 30.7048 7.56232C31.6943 6.82043 32.4282 6.02225 32.805 5.12303C33.5656 3.39316 32.5235 2.44918 31.4785 2.53144Z" fill="url(#paint1_linear_1_23979)"/>
<path opacity="0.4" d="M3.17911 21.4742C2.6439 21.9311 2.63098 22.7502 2.88601 23.2091C2.39255 22.8578 1.74332 22.7443 1.13567 23.3057C0.397905 23.9497 0.393875 25.5302 2.49281 25.9938C3.52786 26.2202 4.56357 26.1831 5.56727 25.9692C5.9167 24.7829 6.02771 23.7042 5.79196 22.7582C5.36725 20.9168 3.96751 20.7834 3.17911 21.4742Z" fill="url(#paint2_linear_1_23979)"/>
<defs>
<linearGradient id="paint0_linear_1_23979" x1="45.8693" y1="27.9301" x2="43.8791" y2="26.9503" gradientUnits="userSpaceOnUse">
<stop stop-color="#FF483C"/>
<stop offset="1" stop-color="#FF2C5A"/>
</linearGradient>
<linearGradient id="paint1_linear_1_23979" x1="31.6873" y1="1.37595" x2="29.8415" y2="2.60635" gradientUnits="userSpaceOnUse">
<stop stop-color="#FF483C"/>
<stop offset="1" stop-color="#FF2C5A"/>
</linearGradient>
<linearGradient id="paint2_linear_1_23979" x1="2.65553" y1="20.4232" x2="1.9118" y2="22.5131" gradientUnits="userSpaceOnUse">
<stop stop-color="#FF483C"/>
<stop offset="1" stop-color="#FF2C5A"/>
</linearGradient>
</defs>
</svg>
