<svg width="29" height="30" viewBox="0 0 29 30" fill="none" xmlns="http://www.w3.org/2000/svg">
<rect y="0.636719" width="28.6364" height="28.6364" rx="6" fill="#007AB5"/>
<path fill-rule="evenodd" clip-rule="evenodd" d="M10.0327 12.349H6.88562V22.6138H10.0327V12.349ZM9.51335 7.58752C9.20548 7.38545 8.84431 7.27988 8.47608 7.28431C7.99429 7.28723 7.53289 7.47914 7.19116 7.81878C6.84942 8.15841 6.65465 8.61862 6.64874 9.10039C6.64203 9.46859 6.74537 9.83041 6.94552 10.1395C7.14567 10.4487 7.43353 10.691 7.77223 10.8355C8.11094 10.9801 8.48507 11.0203 8.84674 10.9509C9.2084 10.8815 9.54114 10.7058 9.80235 10.4462C10.0635 10.1866 10.2413 9.85498 10.3129 9.49375C10.3845 9.13251 10.3467 8.75814 10.2042 8.41854C10.0618 8.07894 9.82123 7.78958 9.51335 7.58752ZM15.1425 12.3493H12.0743V22.6253H15.2665V17.5493C15.2665 16.207 15.526 14.9098 17.1841 14.9098C18.8422 14.9098 18.8422 16.5003 18.8422 17.6283V22.6253H21.9893V16.9853C21.9893 14.2217 21.3915 12.1011 18.1655 12.1011C17.5603 12.0801 16.9606 12.2217 16.4289 12.5114C15.8972 12.8011 15.4529 13.2281 15.1425 13.748V12.3493Z" fill="white"/>
</svg>
