<svg width="25" height="20" viewBox="0 0 25 20" fill="none" xmlns="http://www.w3.org/2000/svg">
<path d="M23.6106 10.5981L13.4252 0.412637C13.2896 0.279478 13.129 0.174472 12.9526 0.103672C12.7763 0.0328718 12.5877 -0.00232219 12.3976 0.000118812H10.8301L22.5531 11.5881L14.6552 19.5535C14.7897 19.6879 14.9493 19.7946 15.1249 19.8674C15.3006 19.9402 15.4889 19.9776 15.679 19.9776C15.8692 19.9776 16.0575 19.9402 16.2331 19.8674C16.4088 19.7946 16.5684 19.6879 16.7028 19.5535L23.6106 12.6457C23.7451 12.5112 23.8518 12.3516 23.9246 12.176C23.9974 12.0003 24.0348 11.812 24.0348 11.6219C24.0348 11.4317 23.9974 11.2434 23.9246 11.0678C23.8518 10.8921 23.7451 10.7325 23.6106 10.5981Z" fill="white"/>
<path d="M19.5758 10.628L9.3904 0.435019C9.25668 0.297796 9.09692 0.188639 8.92048 0.11394C8.74403 0.0392424 8.55446 0.000505967 8.36286 0H1.44756C1.06364 0 0.695452 0.15251 0.423981 0.423981C0.152511 0.695451 0 1.06364 0 1.44756V8.36286C0.000519442 8.55267 0.0385577 8.7405 0.111927 8.91556C0.185297 9.09062 0.29255 9.24944 0.427518 9.3829L10.6205 19.5758C10.7549 19.7103 10.9145 19.817 11.0902 19.8898C11.2658 19.9626 11.4541 20 11.6442 20C11.8344 20 12.0227 19.9626 12.1983 19.8898C12.374 19.817 12.5336 19.7103 12.668 19.5758L19.5758 12.668C19.8451 12.3969 19.9963 12.0302 19.9963 11.648C19.9963 11.2658 19.8451 10.8991 19.5758 10.628ZM3.74266 5.04022C3.48571 5.04021 3.23454 4.96392 3.021 4.82101C2.80746 4.67809 2.64116 4.475 2.54317 4.23746C2.44519 3.99993 2.41994 3.73865 2.47061 3.48675C2.52129 3.23484 2.64562 3.00366 2.82783 2.82249C3.01005 2.64133 3.24196 2.51835 3.49415 2.46913C3.74634 2.41991 4.00747 2.44668 4.24443 2.54604C4.48139 2.6454 4.68352 2.81288 4.82519 3.02724C4.96687 3.24161 5.0417 3.49321 5.04022 3.75016C5.03823 4.09299 4.90065 4.42111 4.65753 4.66283C4.4144 4.90454 4.0855 5.04022 3.74266 5.04022Z" fill="white"/>
</svg>
