<svg width="47" height="43" viewBox="0 0 47 43" fill="none" xmlns="http://www.w3.org/2000/svg">
<path opacity="0.4" d="M30.25 36.3612H29.2683C28.235 36.3612 27.2533 36.7617 26.53 37.485L24.3213 39.6679C23.3138 40.6625 21.6733 40.6625 20.6658 39.6679L18.4571 37.485C17.7337 36.7617 16.7392 36.3612 15.7187 36.3612H14.75C12.6058 36.3612 10.875 34.6434 10.875 32.525V18.4329C10.875 16.3146 12.6058 14.5967 14.75 14.5967H30.25C32.3942 14.5967 34.125 16.3146 34.125 18.4329V32.525C34.125 34.6304 32.3942 36.3612 30.25 36.3612Z" fill="white"/>
<path d="M22.8617 31.3236C22.6679 31.3882 22.345 31.3882 22.1383 31.3236C20.4592 30.7424 16.6875 28.3528 16.6875 24.2841C16.6875 22.4887 18.1342 21.042 19.9167 21.042C20.9758 21.042 21.9058 21.5457 22.5 22.3337C23.0942 21.5457 24.0242 21.042 25.0833 21.042C26.8658 21.042 28.3125 22.4887 28.3125 24.2841C28.2996 28.3528 24.5408 30.7424 22.8617 31.3236Z" fill="white"/>
<path opacity="0.4" d="M44.7649 28.329C44.3727 27.7446 43.5606 27.6373 43.0753 27.8377C43.4812 27.3881 43.6688 26.7562 43.1813 26.0879C42.6267 25.2808 41.0572 25.0945 40.3546 27.1259C40.0103 28.128 39.9277 29.161 40.0244 30.1827C41.1625 30.6666 42.2211 30.9013 43.188 30.7763C45.0661 30.5668 45.3601 29.1918 44.7649 28.329Z" fill="white"/>
<path opacity="0.4" d="M31.4785 2.53144C30.7763 2.57763 30.2762 3.22642 30.2062 3.74676C30.0207 3.17013 29.5682 2.69092 28.7455 2.77752C27.769 2.85257 26.8207 4.11695 28.2258 5.74365C28.9201 6.544 29.7724 7.13363 30.7048 7.56232C31.6943 6.82043 32.4282 6.02225 32.805 5.12303C33.5656 3.39316 32.5235 2.44918 31.4785 2.53144Z" fill="white"/>
<path opacity="0.4" d="M3.17911 21.4742C2.6439 21.9311 2.63098 22.7502 2.88601 23.2091C2.39255 22.8578 1.74332 22.7443 1.13567 23.3057C0.397905 23.9497 0.393875 25.5302 2.49281 25.9938C3.52786 26.2202 4.56357 26.1831 5.56727 25.9692C5.9167 24.7829 6.02771 23.7042 5.79196 22.7582C5.36725 20.9168 3.96751 20.7834 3.17911 21.4742Z" fill="white"/>
</svg>
