<svg width="20" height="20" viewBox="0 0 20 20" fill="none" xmlns="http://www.w3.org/2000/svg">
<path d="M15.2902 2.13998L15.2202 5.92998C15.2102 6.44998 15.5403 7.13998 15.9603 7.44998L18.4403 9.32998C20.0303 10.53 19.7703 12 17.8703 12.6L14.6403 13.61C14.1003 13.78 13.5303 14.37 13.3903 14.92L12.6203 17.86C12.0103 20.18 10.4902 20.41 9.23025 18.37L7.47024 15.52C7.15024 15 6.39024 14.61 5.79024 14.64L2.45028 14.81C0.0602772 14.93 -0.619732 13.55 0.940268 11.73L2.92025 9.42998C3.29025 8.99998 3.46024 8.19999 3.29024 7.65999L2.28029 4.42998C1.69029 2.52998 2.75028 1.47999 4.64028 2.09999L7.59029 3.06999C8.09029 3.22999 8.84027 3.11998 9.26027 2.80998L12.3403 0.589979C14.0003 -0.610021 15.3302 0.0899825 15.2902 2.13998Z" fill="#FFB800"/>
</svg>
