<svg width="36" height="30" viewBox="0 0 36 30" fill="none" xmlns="http://www.w3.org/2000/svg">
<path d="M6.44103 0.163527C6.11741 0.362603 6.28625 0.0995388 2.87414 5.65233C0.0389227 10.2595 0.0318874 10.2666 0.00374623 10.7003C-0.0103243 11.0487 0.0107815 11.1767 0.144452 11.3829C0.235911 11.5251 4.12642 15.7412 8.79785 20.7465C14.8623 27.2449 17.3598 29.8685 17.5146 29.9253C17.803 30.0249 18.197 30.0249 18.4854 29.9253C18.6402 29.8685 21.1377 27.2449 27.2021 20.7465C31.8736 15.7412 35.7641 11.5251 35.8555 11.3829C35.9892 11.1767 36.0103 11.0487 35.9963 10.7003C35.9681 10.2666 35.9611 10.2524 33.4143 6.11447C29.6434 -0.00710892 29.8685 0.341274 29.5519 0.156418L29.2705 9.22009e-07H17.993H6.70837L6.44103 0.163527ZM11.2461 2.50267C11.2391 2.55244 10.9295 4.14504 10.5567 6.04337L9.86721 9.49165L6.61691 9.51298L3.36661 9.5272L3.7043 8.97974C3.89426 8.67401 4.8792 7.0743 5.89228 5.4177L7.74256 2.41735H9.49434C10.8522 2.41735 11.2461 2.43868 11.2461 2.50267ZM22.2493 2.53822C22.3126 2.75151 23.6986 9.35656 23.6986 9.44188C23.6986 9.50587 22.2704 9.5272 18.0352 9.5272C14.9185 9.5272 12.3718 9.50587 12.3718 9.47032C12.3647 9.44188 12.6743 7.84216 13.0542 5.91539L13.7437 2.41735H17.9789C21.9468 2.41735 22.2141 2.42446 22.2493 2.53822ZM30.4384 5.95094L32.6123 9.49165L29.4464 9.51298C27.7017 9.52009 26.2665 9.51298 26.2454 9.49165C26.1961 9.44899 24.7609 2.72307 24.7539 2.53822C24.7539 2.42446 24.8805 2.41735 26.5057 2.41735H28.2574L30.4384 5.95094ZM12.2733 17.6324L14.4824 23.2137L14.0673 22.7871C13.6663 22.3676 4.55557 12.5844 4.21788 12.2076L4.042 12.0156L7.0531 12.0299L10.0642 12.0512L12.2733 17.6324ZM23.3187 12.1365C22.9458 13.1461 18.0352 25.3822 18.007 25.3822C17.9789 25.3822 16.7688 22.3747 15.3125 18.6989L12.6673 12.0156H18.0141C23.0795 12.0156 23.3609 12.0228 23.3187 12.1365ZM31.7821 12.2076C31.4304 12.6058 22.3267 22.3747 21.9609 22.7515L21.581 23.1426L21.7287 22.7515C22.0312 21.9623 25.9569 12.1294 25.9921 12.0725C26.0132 12.0441 27.364 12.0156 28.9891 12.0156H31.951L31.7821 12.2076Z" fill="#F5C553"/>
</svg>
