<svg width="11" height="11" viewBox="0 0 11 11" fill="none" xmlns="http://www.w3.org/2000/svg">
<path d="M7.12963 5.49808L10.6656 1.96332C11.1115 1.51764 11.1115 0.779951 10.6656 0.334265C10.2198 -0.111422 9.48183 -0.111422 9.03599 0.334265L5.5 3.86902L1.96401 0.334265C1.51817 -0.111422 0.780224 -0.111422 0.334382 0.334265C-0.111461 0.779951 -0.111461 1.51764 0.334382 1.96332L3.87037 5.49808L0.334382 9.03283C-0.111461 9.47852 -0.111461 10.2162 0.334382 10.6619C0.56499 10.8924 0.857093 11 1.1492 11C1.4413 11 1.7334 10.8924 1.96401 10.6619L5.5 7.12714L9.03599 10.6619C9.2666 10.8924 9.5587 11 9.8508 11C10.1429 11 10.435 10.8924 10.6656 10.6619C11.1115 10.2162 11.1115 9.47852 10.6656 9.03283L7.12963 5.49808Z" fill="#FF483C"/>
</svg>
