<svg width="7" height="11" viewBox="0 0 7 11" fill="none" xmlns="http://www.w3.org/2000/svg">
<path d="M4.2412 5.08225L0.584201 1.42525C0.511113 1.3587 0.452122 1.27815 0.410718 1.18839C0.369315 1.09862 0.346341 1.00147 0.343157 0.902668C0.339972 0.803868 0.356642 0.705432 0.392179 0.61319C0.427717 0.520947 0.481399 0.436771 0.550049 0.365645C0.618699 0.29452 0.700921 0.237891 0.791847 0.199109C0.882774 0.160327 0.980557 0.140182 1.07941 0.139866C1.17826 0.139549 1.27617 0.159068 1.36734 0.197267C1.45851 0.235465 1.5411 0.291568 1.6102 0.362252L1.6282 0.380253L5.8082 4.55925C5.94676 4.69784 6.0246 4.88578 6.0246 5.08175C6.0246 5.27772 5.94676 5.46567 5.8082 5.60425L1.6292 9.78325C1.56177 9.85305 1.48125 9.90888 1.39224 9.94756C1.30322 9.98624 1.20747 10.007 1.11043 10.0087C1.01339 10.0104 0.916976 9.99289 0.826685 9.9573C0.736395 9.92171 0.653999 9.86869 0.584201 9.80125C0.514404 9.73382 0.458572 9.6533 0.419893 9.56429C0.381214 9.47528 0.360446 9.37952 0.358775 9.28248C0.357103 9.18544 0.374561 9.08903 0.410151 8.99874C0.445742 8.90845 0.498767 8.82605 0.566201 8.75625L0.584201 8.73825L4.2412 5.08225Z" fill="#242424"/>
</svg>
