<svg width="30" height="30" viewBox="0 0 30 30" fill="none" xmlns="http://www.w3.org/2000/svg">
<path fill-rule="evenodd" clip-rule="evenodd" d="M6.6181 9.90457H0.463824V29.9779H6.6181V9.90457ZM5.6025 0.593194C5.00044 0.198049 4.29414 -0.00840098 3.57405 0.000261863C2.63188 0.00597149 1.7296 0.381265 1.06132 1.04543C0.393033 1.7096 0.012144 2.60957 0.000600767 3.55169C-0.0125206 4.27173 0.189558 4.9793 0.580963 5.58381C0.972368 6.18831 1.53529 6.66223 2.19764 6.9449C2.86 7.22756 3.59164 7.30611 4.2989 7.17048C5.00616 7.03484 5.65685 6.69118 6.16764 6.18354C6.67844 5.67589 7.0261 5.02734 7.16611 4.32093C7.30612 3.61452 7.23211 2.8824 6.95355 2.2183C6.67499 1.5542 6.20456 0.988338 5.6025 0.593194ZM16.6105 9.90464H10.6106V30H16.8531V20.0736C16.8531 17.4487 17.3604 14.9119 20.603 14.9119C23.8456 14.9119 23.8456 18.0222 23.8456 20.228V30H29.9999V18.9707C29.9999 13.5664 28.8308 9.41935 22.5221 9.41935C21.3387 9.37816 20.166 9.65524 19.1262 10.2217C18.0863 10.7882 17.2176 11.6233 16.6105 12.6399V9.90464Z" fill="white"/>
</svg>
