<svg width="30" height="24" viewBox="0 0 30 24" fill="none" xmlns="http://www.w3.org/2000/svg">
<path d="M29.8679 2.86943C28.8976 3.27723 27.8778 3.562 26.8336 3.71681C27.3236 3.71681 28.0398 2.77732 28.3225 2.42732C28.7787 1.88226 29.1241 1.257 29.3402 0.585184C29.3402 0.585184 29.3402 0.474652 29.3402 0.43781C29.3173 0.424875 29.2913 0.418063 29.2648 0.418063C29.2383 0.418063 29.2123 0.424875 29.1894 0.43781C28.0465 1.03434 26.8305 1.48623 25.5708 1.78257C25.5336 1.80359 25.4913 1.81465 25.4483 1.81465C25.4053 1.81465 25.3631 1.80359 25.3258 1.78257C25.2352 1.66949 25.1343 1.56467 25.0243 1.4694C24.4976 1.03974 23.9064 0.69181 23.2715 0.43781C22.4248 0.0967103 21.5089 -0.0482929 20.5953 0.0141268C19.7064 0.0704828 18.8395 0.308979 18.051 0.714133C17.2437 1.12176 16.5339 1.6921 15.9686 2.3875C15.4034 3.08291 14.9954 3.88758 14.7717 4.74841C14.6021 5.58149 14.6021 6.43905 14.7717 7.27213C14.7717 7.4195 14.7716 7.43792 14.6397 7.4195C9.86982 6.94218 5.45409 4.74144 2.25742 1.24835C2.12549 1.10098 2.05011 1.10098 1.91818 1.24835C1.27659 2.41063 1.03463 3.74384 1.22809 5.05089C1.42155 6.35794 2.04015 7.56946 2.99244 8.50635C3.23745 8.72741 3.48245 8.94848 3.7463 9.15111C2.91968 9.08749 2.11339 8.86856 1.37162 8.50635C1.22085 8.50635 1.14547 8.50636 1.12662 8.61689C1.10867 8.8499 1.10867 9.08389 1.12662 9.3169C1.26959 10.4044 1.70637 11.4349 2.39205 12.3026C3.07773 13.1704 3.98756 13.8438 5.0279 14.2538C5.27895 14.3695 5.54542 14.4501 5.81946 14.4933C5.04663 14.6288 4.25527 14.6288 3.48245 14.4933C3.31283 14.4933 3.23745 14.4933 3.31284 14.7143C3.71435 15.7382 4.37709 16.6446 5.23806 17.3475C6.09902 18.0504 7.12961 18.5264 8.23184 18.7302C8.458 18.7302 8.68416 18.7302 8.91032 18.7302C8.91032 18.7302 9.13648 18.7302 8.91032 18.7302C7.94923 19.5746 6.79085 20.1755 5.53677 20.4802C3.90161 21.052 2.15941 21.272 0.429285 21.125C0.165431 21.125 0.108892 21.125 0.0335053 21.125C-0.0418817 21.125 0.0335053 21.2355 0.0335053 21.2908C0.374177 21.517 0.726436 21.726 1.08892 21.9171C2.17424 22.4771 3.31787 22.9218 4.50019 23.2434C7.54734 24.1418 10.7825 24.242 13.8817 23.534C16.9809 22.826 19.8355 21.3346 22.1596 19.2092C23.8172 17.4593 25.1037 15.4058 25.9447 13.1672C26.7858 10.9286 27.1648 8.54938 27.0597 6.16685C27.0597 5.98264 27.2859 5.87211 27.4367 5.78C28.3509 5.08001 29.157 4.25484 29.8302 3.32996C29.9431 3.20227 30.0036 3.03817 29.9998 2.86943C29.9998 2.86943 29.9998 2.81416 29.8679 2.86943Z" fill="white"/>
</svg>
