<svg width="30" height="30" viewBox="0 0 30 30" fill="none" xmlns="http://www.w3.org/2000/svg">
<path fill-rule="evenodd" clip-rule="evenodd" d="M2.15761 21.9611L0 30L8.08219 27.8799C10.2591 29.0406 12.6888 29.6474 15.1563 29.6467C18.4094 29.6479 21.5728 28.5811 24.1596 26.6104C26.7464 24.6397 28.6132 21.8743 29.4728 18.7399C30.3323 15.6055 30.1369 12.2757 28.9166 9.26312C27.6964 6.2505 25.5189 3.72199 22.7194 2.06674C19.9198 0.411496 16.6533 -0.27876 13.4226 0.10223C10.1919 0.483221 7.17607 1.91434 4.83925 4.17531C2.50243 6.43629 0.974166 9.40181 0.489627 12.6155C0.00508784 15.8291 0.591145 19.1128 2.15761 21.9611ZM9.00181 25.1237L8.48895 24.8233L3.97919 26.0424L5.18181 21.5548L4.86346 21.0424C3.34153 18.5453 2.78625 15.5784 3.30223 12.7006C3.81822 9.82289 5.36985 7.233 7.66478 5.41892C9.95971 3.60484 12.8395 2.69182 15.7615 2.8519C18.6836 3.01197 21.4462 4.23408 23.5288 6.28797C25.6114 8.34185 26.8703 11.0857 27.0682 14.0026C27.2661 16.9194 26.3894 19.8079 24.6033 22.1238C22.8172 24.4397 20.245 26.023 17.3713 26.5756C14.4976 27.1282 11.5208 26.6118 9.00181 25.1237ZM19.6661 16.3454C20.0329 16.4278 20.377 16.5898 20.6741 16.8198C20.7582 16.8723 20.8509 16.9272 20.9486 16.985C21.5079 17.316 22.2292 17.7428 22.425 18.3746C22.4816 18.721 22.4387 19.0763 22.3012 19.3993C22.0175 19.8985 21.6197 20.3236 21.1403 20.6399C20.6608 20.9561 20.1132 21.1546 19.5423 21.2191C18.5286 21.3347 17.5024 21.176 16.5711 20.7598C15.6774 20.4544 14.8227 20.0453 14.0245 19.5407C12.4208 18.5619 11.0313 17.2699 9.93915 15.7421C9.59454 15.2831 9.27572 14.8053 8.98416 14.311C8.59023 13.6664 8.28675 12.9709 8.08221 12.2439C8.01298 11.9365 7.97737 11.6225 7.97608 11.3075C7.95287 10.7474 8.05698 10.1894 8.28059 9.67533C8.50419 9.16125 8.84148 8.70446 9.26713 8.33927C9.51004 8.13915 9.80201 8.00743 10.1129 7.95773C10.4238 7.90804 10.7424 7.94217 11.0357 8.05659C11.5852 8.36162 11.8976 9.07476 12.1548 9.66189C12.1956 9.75493 12.2349 9.8448 12.2736 9.92938C12.5831 10.4639 12.719 11.0812 12.6627 11.6962C12.5072 12.237 12.2077 12.7255 11.7961 13.1096C11.6942 13.2204 11.6377 13.3654 11.6377 13.5159C11.6377 13.6664 11.6942 13.8115 11.7961 13.9223C12.885 15.7965 14.5822 17.2427 16.6065 18.0212C16.7151 18.0891 16.8457 18.1122 16.971 18.0859C17.0963 18.0595 17.2066 17.9857 17.2786 17.8799C17.3988 17.7369 17.5172 17.5494 17.641 17.3535C17.8994 16.9443 18.1812 16.4981 18.5519 16.3428C18.919 16.2621 19.2994 16.2629 19.6661 16.3454Z" fill="white"/>
</svg>
