<svg width="94" height="60" viewBox="0 0 94 60" fill="none" xmlns="http://www.w3.org/2000/svg">
<path d="M55.72 25.3121L53.64 34.9921H63.4V47.4721H51L48.36 59.8721H35.56L38.2 47.4721H24.84L22.2 59.8721H9.48L12.12 47.4721H0.44V34.9921H14.76L16.84 25.3121H5.48V12.8321H19.56L22.12 0.67207H34.84L32.28 12.8321H45.64L48.2 0.67207H61L58.44 12.8321H68.44V25.3121H55.72ZM42.92 25.3121H29.56L27.48 34.9921H40.84L42.92 25.3121ZM70.7394 16.1121V3.31207H93.6194V59.8721H79.2194V16.1121H70.7394Z" fill="url(#paint0_linear_1_23587)"/>
<defs>
<linearGradient id="paint0_linear_1_23587" x1="99" y1="-28.128" x2="-3.48515" y2="-26.0133" gradientUnits="userSpaceOnUse">
<stop stop-color="#FF483C"/>
<stop offset="1" stop-color="#FF2C5A"/>
</linearGradient>
</defs>
</svg>
