<svg width="42" height="42" viewBox="0 0 42 42" fill="none" xmlns="http://www.w3.org/2000/svg">
<rect width="42" height="42" rx="10" fill="url(#paint0_linear_1_16609)"/>
<path d="M21 31.75C15.07 31.75 10.25 26.93 10.25 21C10.25 15.07 15.07 10.25 21 10.25C26.93 10.25 31.75 15.07 31.75 21C31.75 26.93 26.93 31.75 21 31.75ZM21 11.75C15.9 11.75 11.75 15.9 11.75 21C11.75 26.1 15.9 30.25 21 30.25C26.1 30.25 30.25 26.1 30.25 21C30.25 15.9 26.1 11.75 21 11.75Z" fill="white"/>
<path d="M25 21.75H17C16.59 21.75 16.25 21.41 16.25 21C16.25 20.59 16.59 20.25 17 20.25H25C25.41 20.25 25.75 20.59 25.75 21C25.75 21.41 25.41 21.75 25 21.75Z" fill="white"/>
<path d="M21 25.75C20.59 25.75 20.25 25.41 20.25 25V17C20.25 16.59 20.59 16.25 21 16.25C21.41 16.25 21.75 16.59 21.75 17V25C21.75 25.41 21.41 25.75 21 25.75Z" fill="white"/>
<defs>
<linearGradient id="paint0_linear_1_16609" x1="42" y1="-9.28089e-06" x2="-1.03457" y2="1.08824" gradientUnits="userSpaceOnUse">
<stop stop-color="#FF483C"/>
<stop offset="1" stop-color="#FF2C5A"/>
</linearGradient>
</defs>
</svg>
