<svg width="25" height="29" viewBox="0 0 25 29" fill="none" xmlns="http://www.w3.org/2000/svg">
<path d="M13.9314 28.0914C13.1413 28.2408 12.6627 27.8846 12.3289 27.1722C11.8281 26.0807 11.3273 25.0006 11.3718 23.7482C11.3941 23.2541 11.2049 22.7715 11.0045 22.3119C10.6929 21.5651 10.615 20.8068 10.8265 20.014C11.0824 19.0373 10.9934 18.1411 10.3479 17.3138C9.73586 16.521 9.80263 15.5099 9.62457 14.5907C9.55779 14.2575 9.49102 13.9128 9.37973 13.5911C8.99022 12.4306 8.16669 11.902 7.00929 12.1433C5.69609 12.4076 4.39401 12.3042 3.09194 12.0974C2.36856 11.9825 1.74535 11.6263 1.31132 11.0288C0.587948 10.0407 0.08715 8.93762 0.00924816 7.67373C-0.0241384 7.22562 0.0315059 6.789 0.198439 6.38685C0.832782 4.91613 1.55616 3.50287 2.56888 2.26195C3.32564 1.33126 4.21595 0.641866 5.44012 0.469516C6.2414 0.354617 7.02042 0.0788573 7.83282 0.00991747C8.4783 -0.0475324 8.97909 0.136307 9.30183 0.779745C9.60231 1.38871 9.95843 1.9747 10.4147 2.49175C11.127 3.29605 11.8169 3.42244 12.7406 2.91688C13.9871 2.25046 15.3003 1.96321 16.7025 2.0896C17.3257 2.14705 17.7041 2.45728 17.9378 3.05476C18.4164 4.33015 18.906 5.61702 19.5292 6.82347C20.0412 7.80012 20.5976 8.75378 21.4545 9.45467C22.1668 10.0407 22.9347 10.4658 23.9029 10.1441C24.1588 10.0522 24.4704 10.0062 24.6485 10.3279C24.8154 10.6266 24.6819 10.8909 24.5038 11.1207C24.1366 11.6263 23.658 12.0284 23.2018 12.4536C22.7232 12.9017 22.2447 13.3498 21.8329 13.8783C21.1652 14.7401 20.8536 15.6593 21.0316 16.7968C21.2208 18.0262 21.2208 19.2786 20.887 20.4965C20.6532 21.3583 20.2415 22.0247 19.2955 22.197C18.6834 22.3119 18.383 22.7945 18.3162 23.3805C18.1938 24.3916 17.9044 25.2419 17.003 25.8394C16.6246 26.0921 16.402 26.5977 16.1127 26.9999C15.5562 27.7352 14.8551 28.1603 13.9314 28.0914Z" fill="white"/>
<path d="M21.9546 24.426C21.9879 23.5527 22.4442 22.8059 22.7002 21.9901C22.8115 21.6224 24.2471 21.1628 24.6143 21.2777C24.9037 21.3811 24.9816 21.6454 24.9927 21.9097C25.0595 23.2655 24.6144 24.4145 23.5905 25.2877C23.2566 25.575 22.856 25.7933 22.422 25.5635C21.9879 25.3452 21.9434 24.8856 21.9546 24.426Z" fill="white"/>
</svg>
