<svg width="22" height="19" viewBox="0 0 22 19" fill="none" xmlns="http://www.w3.org/2000/svg">
<path d="M8 11C10.2091 11 12 9.20914 12 7C12 4.79086 10.2091 3 8 3C5.79086 3 4 4.79086 4 7C4 9.20914 5.79086 11 8 11Z" fill="white"/>
<path d="M8 12.9996C5.33 12.9996 0 14.3396 0 16.9996V17.9996C0 18.5496 0.45 18.9996 1 18.9996H15C15.55 18.9996 16 18.5496 16 17.9996V16.9996C16 14.3396 10.67 12.9996 8 12.9996ZM14.47 5.76962C14.79 6.55962 14.79 7.43962 14.47 8.22962C14.28 8.69962 14.36 9.22962 14.72 9.58962L14.75 9.61962C15.33 10.1996 16.32 10.0796 16.7 9.34962C17.46 7.89962 17.46 6.19962 16.68 4.68962C16.3 3.94962 15.3 3.80962 14.71 4.39962L14.7 4.40962C14.36 4.75962 14.28 5.29962 14.47 5.76962ZM18.18 0.889618C17.78 1.28962 17.72 1.90962 18.05 2.36962C20.02 5.10962 20.01 8.77962 18.02 11.6196C17.7 12.0696 17.77 12.6896 18.16 13.0796L18.19 13.1096C18.68 13.5996 19.51 13.5596 19.93 13.0096C22.68 9.46962 22.69 4.63962 19.93 0.989618C19.51 0.439618 18.67 0.399618 18.18 0.889618Z" fill="white"/>
</svg>
