<svg width="16" height="20" viewBox="0 0 16 20" fill="none" xmlns="http://www.w3.org/2000/svg">
<path d="M8 14C9.7 12.4667 10.7917 11.3873 11.275 10.762C11.7583 10.1367 12 9.516 12 8.9C12 8.3 11.7833 7.78333 11.35 7.35C10.9167 6.91667 10.4 6.7 9.8 6.7C9.45 6.7 9.11233 6.77067 8.787 6.912C8.46167 7.05333 8.19933 7.24933 8 7.5C7.8 7.25 7.54167 7.054 7.225 6.912C6.90833 6.77 6.56667 6.69933 6.2 6.7C5.6 6.7 5.08333 6.91667 4.65 7.35C4.21667 7.78333 4 8.3 4 8.9C4 9.21667 4.04167 9.50833 4.125 9.775C4.20833 10.0417 4.39167 10.3543 4.675 10.713C4.95833 11.071 5.36233 11.5083 5.887 12.025C6.41167 12.5417 7.116 13.2 8 14ZM8 20C5.68333 19.4167 3.77067 18.0873 2.262 16.012C0.753334 13.9367 -0.000666225 11.6327 4.41696e-07 9.1V3L8 0L16 3V9.1C16 11.6333 15.2457 13.9377 13.737 16.013C12.2283 18.0883 10.316 19.4173 8 20Z" fill="white"/>
</svg>
