<svg width="29" height="30" viewBox="0 0 29 30" fill="none" xmlns="http://www.w3.org/2000/svg">
<rect x="0.363281" y="0.636719" width="28.6364" height="28.6364" rx="6" fill="#FF0302"/>
<g clip-path="url(#clip0_1_24360)">
<path d="M23.2735 10.6182C23.1723 10.2374 22.9729 9.88989 22.6952 9.61041C22.4175 9.33094 22.0713 9.1293 21.6912 9.02567C20.2919 8.64941 14.6989 8.64941 14.6989 8.64941C14.6989 8.64941 9.10582 8.64941 7.70655 9.02567C7.32644 9.1293 6.98021 9.33094 6.70252 9.61041C6.42483 9.88989 6.22541 10.2374 6.12423 10.6182C5.75 12.0235 5.75 14.9543 5.75 14.9543C5.75 14.9543 5.75 17.885 6.12423 19.2904C6.22541 19.6712 6.42483 20.0187 6.70252 20.2982C6.98021 20.5777 7.32644 20.7793 7.70655 20.8829C9.10582 21.2592 14.6989 21.2592 14.6989 21.2592C14.6989 21.2592 20.2919 21.2592 21.6912 20.8829C22.0713 20.7793 22.4175 20.5777 22.6952 20.2982C22.9729 20.0187 23.1723 19.6712 23.2735 19.2904C23.6477 17.885 23.6477 14.9543 23.6477 14.9543C23.6477 14.9543 23.6477 12.0235 23.2735 10.6182Z" fill="white"/>
<path d="M12.8691 17.6165V12.2939L17.547 14.9552L12.8691 17.6165Z" fill="#FF0302"/>
</g>
<defs>
<clipPath id="clip0_1_24360">
<rect width="17.8977" height="17.8977" fill="white" transform="translate(5.73242 6.00586)"/>
</clipPath>
</defs>
</svg>
