<svg width="20" height="30" viewBox="0 0 20 20" fill="none" xmlns="http://www.w3.org/2000/svg">
<path d="M17 6C16.1667 6 15.4583 5.70833 14.875 5.125C14.2917 4.54167 14 3.83333 14 3C14 2.16667 14.2917 1.45833 14.875 0.875C15.4583 0.291667 16.1667 0 17 0C17.8333 0 18.5417 0.291667 19.125 0.875C19.7083 1.45833 20 2.16667 20 3C20 3.83333 19.7083 4.54167 19.125 5.125C18.5417 5.70833 17.8333 6 17 6ZM4 18L1.7 20.3C1.38334 20.6167 1.02067 20.6877 0.612002 20.513C0.203335 20.3383 -0.000665038 20.0257 1.62866e-06 19.575V4C1.62866e-06 3.45 0.196002 2.979 0.588002 2.587C0.980002 2.195 1.45067 1.99933 2 2H12.1C12.0333 2.33333 12 2.66667 12 3C12 3.33333 12.0333 3.66667 12.1 4C12.3333 5.15 12.9083 6.10433 13.825 6.863C14.7417 7.62167 15.8 8.00067 17 8C17.5333 8 18.0583 7.91667 18.575 7.75C19.0917 7.58333 19.5667 7.33333 20 7V16C20 16.55 19.804 17.021 19.412 17.413C19.02 17.805 18.5493 18.0007 18 18H4Z" fill="white"/>
</svg>
