<svg width="30" height="30" viewBox="0 0 30 30" fill="none" xmlns="http://www.w3.org/2000/svg">
<path fill-rule="evenodd" clip-rule="evenodd" d="M9.01399 30H20.986C23.3752 29.9954 25.6653 29.0448 27.3547 27.3563C29.0442 25.6679 29.9953 23.3791 30 20.9913V9.00875C29.9953 6.6209 29.0442 4.33218 27.3547 2.64371C25.6653 0.955246 23.3752 0.00462315 20.986 0H9.01399C6.62475 0.00462315 4.3347 0.955246 2.64525 2.64371C0.955801 4.33218 0.00462584 6.6209 0 9.00875V20.9913C0.00462584 23.3791 0.955801 25.6679 2.64525 27.3563C4.3347 29.0448 6.62475 29.9954 9.01399 30ZM4.63784 4.63515C5.79882 3.47484 7.37212 2.82095 9.01399 2.81633H20.986C22.6278 2.82095 24.2011 3.47484 25.3621 4.63515C26.5231 5.79545 27.1774 7.36784 27.182 9.00875V20.9913C27.1774 22.6306 26.5225 24.2011 25.361 25.3587C24.1996 26.5162 22.6262 27.1662 20.986 27.1662H9.01399C7.37373 27.1662 5.8004 26.5162 4.63892 25.3587C3.47745 24.2011 2.8226 22.6306 2.81797 20.9913V9.00875C2.82259 7.36784 3.47686 5.79545 4.63784 4.63515ZM22.9463 5.35291C22.6002 5.35291 22.2618 5.45549 21.9739 5.6477C21.6861 5.83992 21.4617 6.11312 21.3293 6.43276C21.1968 6.7524 21.1621 7.10412 21.2297 7.44345C21.2972 7.78277 21.4639 8.09446 21.7087 8.3391C21.9535 8.58374 22.2653 8.75034 22.6049 8.81783C22.9444 8.88533 23.2963 8.85068 23.6161 8.71828C23.936 8.58589 24.2093 8.36168 24.4017 8.07401C24.594 7.78635 24.6966 7.44815 24.6966 7.10218C24.6966 6.63824 24.5122 6.19331 24.184 5.86525C23.8557 5.5372 23.4105 5.35291 22.9463 5.35291ZM15.1222 7.64449C13.6549 7.64106 12.2197 8.07343 10.9988 8.88673C9.7778 9.70002 8.82618 10.8576 8.2647 12.2124C7.70322 13.5672 7.55719 15.0582 7.84517 16.4961C8.13315 17.9341 8.84213 19.254 9.88212 20.2885C10.9221 21.323 12.2462 22.0252 13.6863 22.3062C15.1264 22.5872 16.6176 22.4342 17.9705 21.8666C19.3234 21.299 20.4771 20.3424 21.2851 19.1184C22.093 17.8943 22.5188 16.4578 22.5084 14.9914C22.4946 13.0411 21.7109 11.1751 20.3277 9.79929C18.9445 8.42346 17.0737 7.64905 15.1222 7.64449ZM15.1222 19.7494C15.1222 19.7591 15.1144 19.767 15.1047 19.767C14.1719 19.767 13.2597 19.4921 12.4822 18.9765C11.6999 18.4578 11.0892 17.7186 10.7275 16.8527C10.3658 15.9868 10.2694 15.0331 10.4505 14.1124C10.6315 13.1916 11.0819 12.3453 11.7445 11.6806C12.4072 11.0159 13.2523 10.5626 14.1729 10.3783C15.0935 10.194 16.0481 10.2868 16.9158 10.6451C17.7836 11.0034 18.5254 11.611 19.0474 12.3909C19.5694 13.1709 19.848 14.0881 19.848 15.0264C19.8343 16.2732 19.3314 17.4647 18.4476 18.3447C17.568 19.2206 16.3809 19.7182 15.1397 19.7318C15.13 19.7319 15.1222 19.7398 15.1222 19.7494Z" fill="white"/>
</svg>
